<?xml version="1.0" encoding="utf-8"?>
<!-- Generator: Adobe Illustrator 27.5.0, SVG Export Plug-In . SVG Version: 6.00 Build 0)  -->
<svg version="1.1" xmlns="http://www.w3.org/2000/svg" xmlns:xlink="http://www.w3.org/1999/xlink" x="0px" y="0px"
	 viewBox="0 0 750 500" style="enable-background:new 0 0 750 500;" xml:space="preserve">
<g id="BACKGROUND">
	<rect x="124.132" y="0.289" style="fill:#EAEAE4;" width="500" height="500"/>
	<rect x="-0.868" y="0.289" style="fill:#EDEDED;" width="750" height="500"/>
</g>
<g id="OBJECTS">
	<g>
		<rect x="12.257" y="355.312" style="fill:#A09A9A;" width="730.723" height="11.489"/>
		<g>
			<g>
				<path style="fill-rule:evenodd;clip-rule:evenodd;fill:#CA0007;" d="M443.255,148.075h179.691c1.901,0,3.456,1.555,3.456,3.456
					v127.592c0,1.9-1.555,3.456-3.456,3.456H443.255c-1.901,0-3.456-1.555-3.456-3.456V151.53
					C439.8,149.63,441.355,148.075,443.255,148.075z"/>
				<path style="fill-rule:evenodd;clip-rule:evenodd;fill:#A11211;" d="M445.225,153.5v8.53h175.752v-8.53H445.225L445.225,153.5z
					 M445.225,164.954v17.81h175.752v-17.81H445.225L445.225,164.954z M445.225,185.687v17.81h175.752v-17.81H445.225
					L445.225,185.687z M445.225,206.421v17.81h175.752v-17.81H445.225L445.225,206.421z M445.225,227.155v17.81h175.752v-17.81
					H445.225L445.225,227.155z M445.225,247.889v17.81h175.752v-17.81H445.225L445.225,247.889z M445.225,268.622v8.53h175.752
					v-8.53H445.225z"/>
				<path style="fill-rule:evenodd;clip-rule:evenodd;fill:#FFFFFF;" d="M533.67,185.687c15.88,0,28.753,13.27,28.753,29.639
					c0,0.687-0.023,1.369-0.068,2.044l-14.239-5.968l5.922-5.814l-36.045-15.109C522.502,187.449,527.886,185.687,533.67,185.687
					L533.67,185.687z M557.546,231.84c-5.162,7.915-13.928,13.124-23.876,13.124c-14.815,0-27.012-11.551-28.58-26.393l18.078,3.699
					l-7.228,7.097L557.546,231.84L557.546,231.84z M509.993,192.451l-18.624,18.285l41.78,8.548l-5.921,5.814l47.606,2.829
					l-35.381-14.831l5.922-5.814L509.993,192.451z"/>
				<rect x="436.609" y="286.299" style="fill-rule:evenodd;clip-rule:evenodd;" width="195.64" height="7.443"/>
				<g>
					<path style="fill-rule:evenodd;clip-rule:evenodd;fill:#CA0007;" d="M633.048,165.619h66.705c1.654,0,3.067,0.939,3.706,2.465
						l27.628,65.902c0.216,0.516,0.312,0.994,0.312,1.554v85.316c0,1.462-1.196,2.659-2.659,2.659h-11.298
						c0-19.011-15.412-34.423-34.423-34.423c-19.011,0-34.423,15.412-34.423,34.423h-15.549c-1.462,0-2.659-1.196-2.659-2.659
						V168.277C630.389,166.815,631.585,165.619,633.048,165.619z"/>
					<path style="fill-rule:evenodd;clip-rule:evenodd;fill:#A11211;" d="M635.412,177.072c0-3.544,2.885-6.43,6.43-6.43h52.966
						c2.625,0,4.915,1.523,5.93,3.944l21.039,50.184c0.848,2.023,0.639,4.22-0.576,6.047c-1.215,1.826-3.161,2.869-5.354,2.869
						h-23.16c-1.771,0-3.359-0.668-4.597-1.935l-9.331-9.543c-0.331-0.338-0.676-0.483-1.149-0.483h-35.766
						c-3.544,0-6.43-2.886-6.43-6.43V177.072z"/>
					<path style="fill-rule:evenodd;clip-rule:evenodd;fill:#FFFFFF;" d="M637.824,177.072v38.223c0,2.214,1.805,4.019,4.019,4.019
						h35.766c1.122,0,2.089,0.406,2.873,1.209l9.331,9.544c0.785,0.802,1.751,1.209,2.873,1.209h23.16
						c1.386,0,2.578-0.639,3.346-1.793c0.768-1.154,0.896-2.501,0.36-3.779l-21.039-50.184c-0.639-1.525-2.052-2.465-3.706-2.465
						h-52.966C639.629,173.053,637.824,174.858,637.824,177.072z"/>
					<path style="fill-rule:evenodd;clip-rule:evenodd;fill:#A11211;" d="M639.004,236.997v68.3c0,1.524,0.856,2.855,2.113,3.536
						c6.061-17.302,22.532-29.711,41.903-29.711c15.516,0,29.17,7.962,37.106,20.021v-50.184c0-2.214-1.805-4.019-4.019-4.019
						h-25.704c-1.122,0-2.089-0.406-2.873-1.209l-9.331-9.544c-0.785-0.802-1.751-1.209-2.873-1.209h-32.303
						C640.809,232.979,639.004,234.784,639.004,236.997z"/>
					<path style="fill-rule:evenodd;clip-rule:evenodd;" d="M731.399,245.795h-6.513c-0.804,0-1.462,0.657-1.462,1.462v54.093
						c0,0.804,0.658,1.462,1.462,1.462h6.513V245.795z"/>
					<path style="fill-rule:evenodd;clip-rule:evenodd;fill:#4E4E4E;" d="M731.399,249.616h-4.552c-0.421,0-0.765,0.344-0.765,0.764
						v1.794c0,0.421,0.344,0.765,0.765,0.765h4.552V249.616L731.399,249.616z M731.399,298.991v-3.323h-4.552
						c-0.421,0-0.765,0.344-0.765,0.765v1.794c0,0.421,0.344,0.764,0.765,0.764H731.399L731.399,298.991z M731.399,293.874v-3.323
						h-4.552c-0.421,0-0.765,0.344-0.765,0.765v1.794c0,0.42,0.344,0.764,0.765,0.764H731.399L731.399,293.874z M731.399,288.757
						v-3.323h-4.552c-0.421,0-0.765,0.344-0.765,0.765v1.794c0,0.421,0.344,0.765,0.765,0.765H731.399L731.399,288.757z
						 M731.399,283.64v-3.323h-4.552c-0.421,0-0.765,0.344-0.765,0.764v1.794c0,0.421,0.344,0.765,0.765,0.765H731.399
						L731.399,283.64z M731.399,278.523V275.2h-4.552c-0.421,0-0.765,0.344-0.765,0.765v1.794c0,0.421,0.344,0.765,0.765,0.765
						H731.399L731.399,278.523z M731.399,273.406v-3.323h-4.552c-0.421,0-0.765,0.344-0.765,0.765v1.794
						c0,0.421,0.344,0.764,0.765,0.764H731.399L731.399,273.406z M731.399,268.289v-3.323h-4.552c-0.421,0-0.765,0.344-0.765,0.765
						v1.794c0,0.421,0.344,0.765,0.765,0.765H731.399L731.399,268.289z M731.399,263.172v-3.323h-4.552
						c-0.421,0-0.765,0.344-0.765,0.765v1.794c0,0.421,0.344,0.764,0.765,0.764H731.399L731.399,263.172z M731.399,258.055v-3.323
						h-4.552c-0.421,0-0.765,0.344-0.765,0.764v1.794c0,0.421,0.344,0.764,0.765,0.764H731.399z"/>
					<path style="fill-rule:evenodd;clip-rule:evenodd;fill:#CA0007;" d="M647.101,238.485h8.772c0.695,0,1.263,0.568,1.263,1.263
						v1.861c0,0.695-0.568,1.263-1.263,1.263h-8.772c-0.695,0-1.263-0.568-1.263-1.263v-1.861
						C645.839,239.053,646.407,238.485,647.101,238.485z"/>
					<path style="fill-rule:evenodd;clip-rule:evenodd;fill:#EEB400;" d="M731.399,256.669c-2.769,2.416-4.552,6.194-4.552,10.441
						s1.783,8.025,4.552,10.441V256.669z"/>
				</g>
				<path style="fill-rule:evenodd;clip-rule:evenodd;fill:#CA0007;" d="M586.677,286.299h19.77c9.549,0,17.361,7.812,17.361,17.361
					l0,0c0,9.549-7.812,17.361-17.361,17.361h-19.77c-9.549,0-17.361-7.813-17.361-17.361l0,0
					C569.316,294.111,577.128,286.299,586.677,286.299z"/>
				<path style="fill-rule:evenodd;clip-rule:evenodd;fill:#A11211;" d="M591.138,286.299v34.722h-4.461
					c-0.394,0-0.784-0.014-1.171-0.041V286.34c0.387-0.026,0.778-0.041,1.171-0.041H591.138L591.138,286.299z M601.987,286.299
					h4.461c0.394,0,0.784,0.014,1.172,0.041v34.641c-0.387,0.026-0.778,0.041-1.172,0.041h-4.461V286.299z"/>
				<g>
					<path style="fill-rule:evenodd;clip-rule:evenodd;fill:#111C3E;" d="M683.057,291.649c17.69,0,32.031,14.341,32.031,32.031
						c0,17.69-14.341,32.031-32.031,32.031c-17.69,0-32.031-14.341-32.031-32.031C651.026,305.99,665.367,291.649,683.057,291.649
						L683.057,291.649z M683.057,303.993c-10.873,0-19.687,8.814-19.687,19.687c0,10.873,8.814,19.687,19.687,19.687
						c10.873,0,19.687-8.814,19.687-19.687C702.743,312.807,693.929,303.993,683.057,303.993z"/>
					<path style="fill-rule:evenodd;clip-rule:evenodd;fill:#90A1A1;" d="M683.057,303.993c10.873,0,19.687,8.814,19.687,19.687
						c0,10.873-8.814,19.687-19.687,19.687c-10.873,0-19.687-8.814-19.687-19.687C663.37,312.807,672.184,303.993,683.057,303.993
						L683.057,303.993z M676.01,314.601l2.83,2.83c0.825-0.558,1.767-0.957,2.781-1.153v-4.002
						C679.522,312.538,677.599,313.366,676.01,314.601L676.01,314.601z M676.808,319.463l-2.83-2.83
						c-1.235,1.589-2.063,3.512-2.325,5.61h4.002C675.851,321.229,676.25,320.288,676.808,319.463L676.808,319.463z
						 M675.655,325.116h-4.002c0.262,2.098,1.089,4.021,2.324,5.611l2.83-2.83C676.25,327.072,675.851,326.13,675.655,325.116
						L675.655,325.116z M678.84,329.928l-2.83,2.83c1.589,1.236,3.512,2.063,5.61,2.325v-4.002
						C680.606,330.885,679.665,330.486,678.84,329.928L678.84,329.928z M684.493,331.082v4.002c2.099-0.262,4.021-1.089,5.611-2.325
						l-2.83-2.83C686.449,330.487,685.507,330.886,684.493,331.082L684.493,331.082z M689.305,327.897l2.83,2.83
						c1.236-1.589,2.063-3.512,2.325-5.61h-4.002C690.262,326.13,689.863,327.072,689.305,327.897L689.305,327.897z
						 M690.458,322.243h4.002c-0.262-2.099-1.089-4.021-2.325-5.611l-2.83,2.83C689.864,320.288,690.263,321.229,690.458,322.243
						L690.458,322.243z M687.274,317.431l2.83-2.83c-1.589-1.235-3.512-2.063-5.61-2.325v4.002
						C685.507,316.474,686.449,316.873,687.274,317.431z"/>
					<path style="fill-rule:evenodd;clip-rule:evenodd;fill:#979797;" d="M683.057,306.003c9.762,0,17.676,7.914,17.676,17.676
						c0,9.762-7.914,17.677-17.676,17.677c-9.762,0-17.676-7.914-17.676-17.677C665.38,313.917,673.294,306.003,683.057,306.003
						L683.057,306.003z M683.057,308.782c-8.228,0-14.898,6.67-14.898,14.898c0,8.228,6.67,14.898,14.898,14.898
						c8.228,0,14.898-6.67,14.898-14.898C697.955,315.452,691.285,308.782,683.057,308.782z"/>
					<path style="fill-rule:evenodd;clip-rule:evenodd;fill:#979797;" d="M683.057,320.328c1.851,0,3.352,1.501,3.352,3.352
						c0,1.851-1.501,3.352-3.352,3.352c-1.851,0-3.352-1.501-3.352-3.352C679.705,321.828,681.205,320.328,683.057,320.328z"/>
				</g>
				<g>
					<path style="fill-rule:evenodd;clip-rule:evenodd;fill:#111C3E;" d="M533.491,291.649c17.69,0,32.031,14.341,32.031,32.031
						c0,17.69-14.341,32.031-32.031,32.031c-17.69,0-32.031-14.341-32.031-32.031C501.46,305.99,515.801,291.649,533.491,291.649
						L533.491,291.649z M533.491,303.993c-10.873,0-19.687,8.814-19.687,19.687c0,10.873,8.814,19.687,19.687,19.687
						c10.873,0,19.687-8.814,19.687-19.687C553.178,312.807,544.364,303.993,533.491,303.993z"/>
					<path style="fill-rule:evenodd;clip-rule:evenodd;fill:#90A1A1;" d="M533.491,303.993c10.873,0,19.687,8.814,19.687,19.687
						c0,10.873-8.814,19.687-19.687,19.687c-10.873,0-19.687-8.814-19.687-19.687C513.804,312.807,522.618,303.993,533.491,303.993
						L533.491,303.993z M526.444,314.601l2.83,2.83c0.825-0.558,1.767-0.957,2.781-1.153v-4.002
						C529.956,312.538,528.034,313.366,526.444,314.601L526.444,314.601z M527.242,319.463l-2.83-2.83
						c-1.236,1.589-2.063,3.512-2.325,5.61h4.002C526.285,321.229,526.684,320.288,527.242,319.463L527.242,319.463z
						 M526.089,325.116h-4.002c0.262,2.098,1.089,4.021,2.325,5.611l2.83-2.83C526.684,327.072,526.285,326.13,526.089,325.116
						L526.089,325.116z M529.274,329.928l-2.83,2.83c1.589,1.236,3.512,2.063,5.61,2.325v-4.002
						C531.041,330.885,530.099,330.486,529.274,329.928L529.274,329.928z M534.928,331.082v4.002
						c2.098-0.262,4.021-1.089,5.611-2.325l-2.83-2.83C536.883,330.487,535.941,330.886,534.928,331.082L534.928,331.082z
						 M539.74,327.897l2.83,2.83c1.235-1.589,2.063-3.512,2.325-5.61h-4.002C540.696,326.13,540.298,327.072,539.74,327.897
						L539.74,327.897z M540.893,322.243h4.002c-0.262-2.099-1.089-4.021-2.325-5.611l-2.83,2.83
						C540.298,320.288,540.697,321.229,540.893,322.243L540.893,322.243z M537.708,317.431l2.83-2.83
						c-1.589-1.235-3.512-2.063-5.61-2.325v4.002C535.941,316.474,536.883,316.873,537.708,317.431z"/>
					<path style="fill-rule:evenodd;clip-rule:evenodd;fill:#979797;" d="M533.491,306.003c9.762,0,17.676,7.914,17.676,17.676
						c0,9.762-7.914,17.677-17.676,17.677c-9.762,0-17.677-7.914-17.677-17.677C515.815,313.917,523.729,306.003,533.491,306.003
						L533.491,306.003z M533.491,308.782c-8.228,0-14.898,6.67-14.898,14.898c0,8.228,6.67,14.898,14.898,14.898
						c8.228,0,14.898-6.67,14.898-14.898C548.389,315.452,541.719,308.782,533.491,308.782z"/>
					<path style="fill-rule:evenodd;clip-rule:evenodd;fill:#979797;" d="M533.491,320.328c1.851,0,3.352,1.501,3.352,3.352
						c0,1.851-1.501,3.352-3.352,3.352c-1.851,0-3.352-1.501-3.352-3.352C530.139,321.828,531.64,320.328,533.491,320.328z"/>
				</g>
				<g>
					<path style="fill-rule:evenodd;clip-rule:evenodd;fill:#111C3E;" d="M467.98,291.649c17.69,0,32.031,14.341,32.031,32.031
						c0,17.69-14.341,32.031-32.031,32.031c-17.69,0-32.031-14.341-32.031-32.031C435.949,305.99,450.29,291.649,467.98,291.649
						L467.98,291.649z M467.98,303.993c-10.873,0-19.687,8.814-19.687,19.687c0,10.873,8.814,19.687,19.687,19.687
						c10.873,0,19.687-8.814,19.687-19.687C487.667,312.807,478.853,303.993,467.98,303.993z"/>
					<path style="fill-rule:evenodd;clip-rule:evenodd;fill:#90A1A1;" d="M467.98,303.993c10.873,0,19.687,8.814,19.687,19.687
						c0,10.873-8.814,19.687-19.687,19.687c-10.873,0-19.687-8.814-19.687-19.687C448.293,312.807,457.107,303.993,467.98,303.993
						L467.98,303.993z M460.933,314.601l2.83,2.83c0.825-0.558,1.767-0.957,2.78-1.153v-4.002
						C464.445,312.538,462.523,313.366,460.933,314.601L460.933,314.601z M461.731,319.463l-2.83-2.83
						c-1.236,1.589-2.063,3.512-2.325,5.61h4.002C460.774,321.229,461.173,320.288,461.731,319.463L461.731,319.463z
						 M460.578,325.116h-4.002c0.262,2.098,1.089,4.021,2.325,5.611l2.83-2.83C461.173,327.072,460.774,326.13,460.578,325.116
						L460.578,325.116z M463.763,329.928l-2.83,2.83c1.589,1.236,3.512,2.063,5.61,2.325v-4.002
						C465.53,330.885,464.588,330.486,463.763,329.928L463.763,329.928z M469.417,331.082v4.002
						c2.099-0.262,4.021-1.089,5.611-2.325l-2.83-2.83C471.372,330.487,470.431,330.886,469.417,331.082L469.417,331.082z
						 M474.229,327.897l2.83,2.83c1.236-1.589,2.063-3.512,2.325-5.61h-4.002C475.186,326.13,474.787,327.072,474.229,327.897
						L474.229,327.897z M475.382,322.243h4.002c-0.262-2.099-1.089-4.021-2.325-5.611l-2.83,2.83
						C474.787,320.288,475.186,321.229,475.382,322.243L475.382,322.243z M472.197,317.431l2.83-2.83
						c-1.589-1.235-3.512-2.063-5.61-2.325v4.002C470.431,316.474,471.372,316.873,472.197,317.431z"/>
					<path style="fill-rule:evenodd;clip-rule:evenodd;fill:#979797;" d="M467.98,306.003c9.762,0,17.676,7.914,17.676,17.676
						c0,9.762-7.914,17.677-17.676,17.677c-9.762,0-17.677-7.914-17.677-17.677C450.304,313.917,458.218,306.003,467.98,306.003
						L467.98,306.003z M467.98,308.782c-8.228,0-14.898,6.67-14.898,14.898c0,8.228,6.67,14.898,14.898,14.898
						c8.228,0,14.898-6.67,14.898-14.898C482.878,315.452,476.208,308.782,467.98,308.782z"/>
					<path style="fill-rule:evenodd;clip-rule:evenodd;fill:#979797;" d="M467.98,320.328c1.851,0,3.352,1.501,3.352,3.352
						c0,1.851-1.501,3.352-3.352,3.352c-1.851,0-3.352-1.501-3.352-3.352C464.628,321.828,466.129,320.328,467.98,320.328z"/>
				</g>
			</g>
			<g>
				<defs>
					<path id="SVGID_1_" d="M637.824,177.072v38.223c0,2.214,1.805,4.019,4.019,4.019h35.766c1.122,0,2.089,0.406,2.873,1.209
						l9.331,9.544c0.785,0.802,1.751,1.209,2.873,1.209h23.16c1.386,0,2.578-0.639,3.346-1.793c0.768-1.154,0.896-2.501,0.36-3.779
						l-21.039-50.184c-0.639-1.525-2.052-2.465-3.706-2.465h-52.966C639.629,173.053,637.824,174.858,637.824,177.072z"/>
				</defs>
				<clipPath id="SVGID_00000052072382359027268570000013547266546012738492_">
					<use xlink:href="#SVGID_1_"  style="overflow:visible;"/>
				</clipPath>
				<g style="clip-path:url(#SVGID_00000052072382359027268570000013547266546012738492_);">
					<path style="fill:#7F1111;" d="M678.114,228.935c-0.012-0.77-0.282-1.509-0.549-2.231c-0.586-1.584-1.172-3.168-1.758-4.752
						c-0.187-0.507-0.375-1.013-0.577-1.514c-0.265-0.658-0.555-1.305-0.845-1.952c-0.091-0.202-0.181-0.404-0.272-0.606
						c-0.423-0.943-0.845-1.885-1.268-2.828c-0.139-0.309-0.288-0.632-0.557-0.838c-0.466-0.356-1.12-0.253-1.703-0.184
						c-2.728,0.324-5.577-0.545-7.659-2.338c-0.041,3.41,0.847,6.795,2.307,9.876c1.208,2.549,2.808,4.915,4.729,6.98
						c1.673,1.799,3.024,2.717,5.467,2.728C676.948,231.283,678.14,230.613,678.114,228.935z"/>
					<path style="fill:#EDB38C;" d="M679.739,193.904c0.217,1.441,0.696,2.831,0.949,4.267c0.472,2.676,0.133,5.49-0.961,7.978
						c-0.853,1.94-2.279,3.769-4.29,4.438c-1.05,0.349-2.184,0.359-3.256,0.634c-2.14,0.55-3.958,2.224-4.681,4.312
						c-3.351-1.257-6.478-3.107-9.193-5.439c1.022-5.35,0.625-10.964-1.14-16.117c-0.229-0.668-0.469-1.451-0.077-2.039
						c0.232-0.349,0.636-0.536,1.022-0.699c6.496-2.742,13.889-3.345,20.745-1.697c1.034,0.249,1.243,0.345,0.973,1.374
						C679.575,191.889,679.59,192.915,679.739,193.904z"/>
					<path style="fill:#B7E2E1;" d="M680.219,195.521c1.331,1.366,2.107,3.256,2.121,5.163c0.017,2.312-1.026,4.483-2.045,6.558
						c-0.505,1.029-1.022,2.074-1.804,2.912c-0.782,0.838-1.884,1.453-3.028,1.38c-1.338-0.086-2.43-1.055-3.408-1.972
						c-0.997-0.935-1.994-1.869-2.99-2.804c-0.39-0.366-0.802-0.773-0.883-1.301c0.154,0.174,0.461,0.106,0.608-0.075
						c0.147-0.18,0.176-0.426,0.199-0.658c0.147-1.438,0.248-2.881,0.319-4.324c0.025-0.5-0.14-1.533,0.24-1.925
						c0.313-0.323,1.474-0.415,1.915-0.537C674.381,197.133,677.3,196.327,680.219,195.521z"/>
					<path style="fill:#B7E2E1;" d="M658.376,201.02c-0.249,0.025-0.361,0.352-0.123,0.488c0.108,0.061,0.294-0.014,0.275-0.158
						c-0.054-0.42-0.209-0.806-0.476-1.137c-0.217-0.27-0.661-0.723-1.016-0.415c-0.318,0.276-0.24,0.789-0.074,1.124
						c0.212,0.426,0.622,0.699,1.008,0.951c0.176,0.115,0.366-0.142,0.221-0.287c-0.276-0.278-0.714-0.163-0.933,0.126
						c-0.125,0.166-0.188,0.371-0.239,0.57c-0.047,0.182-0.084,0.381-0.016,0.563c0.144,0.386,0.633,0.386,0.909,0.15
						c0.157-0.134,0.254-0.321,0.35-0.5c0.134-0.248,0.268-0.496,0.402-0.744c0.112-0.207-0.204-0.392-0.316-0.184
						c-0.145,0.269-0.289,0.538-0.435,0.807c-0.079,0.146-0.281,0.541-0.51,0.41c-0.18-0.102-0.007-0.529,0.049-0.67
						c0.064-0.161,0.287-0.464,0.481-0.269c0.074-0.096,0.148-0.191,0.221-0.287c-0.26-0.17-0.532-0.343-0.73-0.588
						c-0.159-0.197-0.359-0.599-0.19-0.845c0.095-0.138,0.241,0.025,0.331,0.106c0.105,0.094,0.201,0.199,0.281,0.316
						c0.165,0.24,0.277,0.515,0.315,0.805c0.092-0.053,0.183-0.105,0.275-0.158c-0.02,0.064-0.041,0.129-0.061,0.194
						C658.608,201.362,658.61,200.996,658.376,201.02z"/>
					<path style="fill:#A3CECC;" d="M669.543,202.415c-0.127,0.96-0.247,1.971,0.114,2.869c0.38,0.945,1.227,1.607,2.039,2.223
						c0.786,0.596,1.572,1.193,2.358,1.789c0.592,0.449,1.225,0.915,1.964,0.991c0.74,0.076,1.59-0.414,1.615-1.157
						c0.02-0.585-0.445-1.06-0.876-1.456c-0.712-0.655-1.423-1.311-2.135-1.966c1.677-0.008,3.354-0.016,5.032-0.023
						c0.04-0.806,0.081-1.612,0.121-2.418c-1.362-0.104-2.724-0.208-4.086-0.312c1.298-0.264,2.597-0.529,3.896-0.793
						c0.346-0.07,0.708-0.149,0.973-0.382c0.322-0.284,0.433-0.75,0.389-1.177c-0.044-0.427-0.222-0.827-0.398-1.219
						c-1.365,0.385-2.73,0.771-4.094,1.156c-0.18,0.051-0.372,0.102-0.552,0.049c-0.18-0.053-0.328-0.255-0.254-0.427
						c1.123-0.587,2.245-1.174,3.368-1.76c0.364-0.19,0.749-0.401,0.944-0.763c0.195-0.362,0.082-0.915-0.313-1.027
						c-0.411-0.117-1.363,0.256-1.785,0.341c-0.642,0.128-1.282,0.263-1.921,0.404c-1.231,0.271-2.457,0.564-3.676,0.881
						c-0.754,0.195-1.856,0.264-2.243,1.046C669.594,200.142,669.666,201.478,669.543,202.415z"/>
					<path style="fill:#A11211;" d="M671.395,189.783c4.46-0.073,8.906,0.399,13.337,0.934c0.719,0.087,1.106-0.823,0.542-1.277
						c-0.461-0.372-0.991-0.68-1.516-0.952c-1.097-0.568-2.276-1.082-3.064-2.033c-0.872-1.053-1.126-2.472-1.72-3.703
						c-1.084-2.247-3.314-3.806-5.718-4.475c-2.403-0.67-4.968-0.532-7.417-0.054c-3.12,0.609-6.236,1.832-8.417,4.144
						c-2.182,2.312-3.224,5.878-1.942,8.787c0.194,0.44,0.44,0.866,0.76,1.227c0.469,0.53,0.669,0.288,1.263,0.038
						c1.048-0.442,2.123-0.82,3.214-1.14c2.207-0.646,4.48-1.051,6.768-1.277C668.785,189.874,670.09,189.805,671.395,189.783z"/>
					<path style="fill:#CA0007;" d="M679.696,186.76c-1.111-2.213-2.396-4.4-4.265-6.024c-1.87-1.624-4.425-2.622-6.849-2.116
						c-2.777,0.579-4.891,3.058-5.645,5.793c-0.216,0.784-0.38,1.663-1.018,2.168c-0.883,0.698-2.321,0.381-3.113,1.18
						c-0.556,0.561-0.586,1.488-1.122,2.068c-0.258,0.279-0.609,0.45-0.928,0.657c-0.319,0.207-0.628,0.481-0.718,0.85
						c-0.452,1.859,2.888-0.01,3.42-0.221c1.568-0.623,3.161-1.183,4.774-1.677c3.227-0.988,6.533-1.716,9.877-2.172
						c0.945-0.129,1.893-0.236,2.843-0.322C677.235,186.919,679.607,186.582,679.696,186.76z"/>
					<path style="fill:#2D1416;" d="M665.003,197.144c-0.468,0.062-0.936,0.124-1.404,0.186c-0.025-0.954-0.096-1.935-0.505-2.797
						c-0.409-0.863-1.227-1.592-2.18-1.635c-1.008-0.046-1.934,0.697-2.344,1.619c-0.41,0.922-0.386,1.982-0.205,2.975
						c0.181,0.993,0.511,1.954,0.693,2.946c0.182,0.993,0.208,2.052-0.201,2.975c-0.026-1.466-0.669-2.911-1.74-3.912
						c0.206,0.033,0.327-0.26,0.243-0.451c-0.083-0.191-0.273-0.31-0.414-0.464c-0.328-0.356-0.387-0.876-0.429-1.358
						c-0.068-0.784-0.137-1.568-0.206-2.352c-0.049-0.566-0.092-1.168,0.172-1.671c0.301-0.572,0.927-0.884,1.522-1.138
						c2.069-0.886,4.242-1.53,6.459-1.918c0.563-0.099,1.13-0.18,1.698-0.246c0.522-0.06,0.877-0.186,0.729,0.421
						c-0.253,1.04-0.923,2.053-1.229,3.105C665.312,194.639,665.089,195.887,665.003,197.144z"/>
					<path style="fill:#E5E2DA;" d="M675.181,193.514c0.49,0.087,0.981,0.174,1.471,0.26c0.32,0.057,0.7,0.074,0.836-0.287
						c0.089-0.237,0.023-0.586-0.238-0.666c-0.272-0.084-0.77,0.147-1.027,0.235C676.006,193.131,675.376,193.549,675.181,193.514z"
						/>
					<path style="fill:#2D1416;" d="M678.519,191.4c-0.276-0.3-0.759-0.446-1.15-0.518c-0.36-0.066-0.801-0.102-1.154,0.012
						c-0.709,0.229-1.368,0.668-1.836,1.245c-0.005,0.007,0.004,0.016,0.01,0.01c0.481-0.542,1.159-0.852,1.88-0.863
						c0.335-0.005,0.653-0.049,0.989,0.003c0.177,0.027,0.351,0.072,0.52,0.133c0.2,0.072,0.381,0.183,0.58,0.258
						C678.522,191.743,678.623,191.514,678.519,191.4z"/>
					<path style="fill:#2D1416;" d="M678.097,192.519c-0.178,0.013-0.356,0.04-0.533,0.075c0.217-0.148,0.355-0.384,0.38-0.652
						c0.009-0.099-0.143-0.097-0.154,0c-0.001,0.012-0.003,0.024-0.004,0.035c-0.03,0.262-0.186,0.489-0.422,0.611
						c-0.024,0.012-0.03,0.033-0.025,0.051l-0.009,0.007c-0.271,0.065-0.538,0.146-0.798,0.227c-0.517,0.16-1.021,0.35-1.516,0.57
						c-0.075,0.033-0.069,0.154,0,0.19c0.208,0.106,0.427,0.132,0.657,0.148c0.279,0.02,0.558,0.039,0.837,0.058
						c0.247,0.017,0.497,0.027,0.744,0.051c0.016,0.022,0.051,0.032,0.071,0.008l0.001-0.001l0.002,0
						c0.131,0.015,0.261,0.046,0.368,0.127c0.084,0.063,0.135,0.155,0.221,0.216c0.017,0.012,0.044,0,0.048-0.019
						c0.036-0.173-0.111-0.332-0.249-0.419c-0.079-0.05-0.169-0.079-0.264-0.098c0.142-0.278,0.169-0.619,0.078-0.919
						c0.194-0.056,0.388-0.116,0.578-0.184C678.148,192.585,678.146,192.516,678.097,192.519z M677.289,192.853
						c0.005,0.101,0,0.201-0.025,0.3c-0.013,0.051-0.03,0.102-0.051,0.151c-0.119,0.004-0.154-0.117-0.152-0.235
						c0.033-0.066,0.077-0.13,0.105-0.18C677.206,192.876,677.248,192.865,677.289,192.853z M676.057,193.593
						c-0.222-0.017-0.465-0.013-0.689-0.064c0.41-0.174,0.826-0.334,1.248-0.474c0.04-0.014,0.081-0.026,0.121-0.039
						c-0.063,0.176-0.102,0.371-0.018,0.542c0.015,0.031,0.034,0.061,0.056,0.089C676.536,193.629,676.297,193.611,676.057,193.593z
						"/>
					<path style="fill:#B7E2E1;" d="M669.523,198.52c-0.051,0.088-0.102,0.177-0.153,0.265c-1.966-0.993-3.932-1.986-5.898-2.979
						c-0.162-0.082-0.604-0.346-0.401-0.594c0.155-0.188,0.664,0.169,0.817,0.242c0.651,0.309,1.294,0.635,1.933,0.969
						C666.135,196.588,669.557,198.46,669.523,198.52z"/>
					<path style="fill:#B7E2E1;" d="M658.469,201.665c2.719,1.099,5.438,2.198,8.156,3.297c0.764,0.309,1.528,0.618,2.292,0.926
						c0.138,0.056,0.3-0.061,0.337-0.191c0.045-0.156-0.055-0.282-0.191-0.337c-2.719-1.099-5.438-2.198-8.156-3.297
						c-0.764-0.309-1.528-0.618-2.292-0.926c-0.138-0.056-0.3,0.061-0.337,0.191C658.233,201.484,658.333,201.61,658.469,201.665z"
						/>
					<path style="fill:#C48D69;" d="M661.823,194.635c-0.239-0.475-0.864-0.678-1.373-0.523c-0.509,0.155-0.892,0.604-1.072,1.104
						s-0.18,1.049-0.119,1.577c0.128,1.094,0.516,2.157,1.124,3.076c0.231,0.349,0.603,0.716,1.004,0.596
						c0.969-0.29,0.455-2.104,0.236-2.732C661.26,196.686,662.316,195.613,661.823,194.635z"/>
					<path style="fill:#A11211;" d="M669.233,213.39c0.023,0.875,0.373,1.704,0.716,2.51c0.343,0.805,0.69,1.636,0.707,2.512
						c0.016,0.875-0.376,1.817-1.166,2.193c0.907-0.003,1.815-0.005,2.722-0.008c0.429,3.655,0.859,7.309,1.288,10.964
						c-7.374-0.296-14.748-0.591-22.121-0.887c-0.24-2.805-1.135-5.518-1.445-8.316c-0.31-2.798,0.07-5.881,1.997-7.933
						c1.14-1.214,2.73-1.968,3.746-3.288c0.688-0.894,1.063-1.983,1.426-3.051c0.142-0.417,0.428-2.041,0.836-2.219
						c0.528-0.229,1.018,0.67,1.273,0.988c0.847,1.055,1.801,2.021,2.85,2.876c1.048,0.854,2.187,1.599,3.391,2.215
						C665.781,212.114,669.232,213.367,669.233,213.39z"/>
					<path style="fill:#CA0007;" d="M651.185,220.989c0.263,3.051,1.04,6.056,2.287,8.853c3.961,0.675,8.016,0.79,12.009,0.341
						c0.018-2.768-0.367-5.563-1.381-8.138c-0.391-0.992-0.872-1.945-1.352-2.897c-0.416-0.825-0.837-1.656-1.407-2.382
						c-1.331-1.693-3.494-2.637-5.63-2.628c-1.969,0.008-3.129,0.644-4.002,2.445C651.048,217.945,651.057,219.515,651.185,220.989z
						"/>
					<path style="fill:#0B0C0C;" d="M701.617,240.832L701.617,240.832c-0.905-0.314-1.384-1.303-1.07-2.208l5.504-15.842
						c0.315-0.905,1.303-1.384,2.208-1.07l0,0c0.905,0.314,1.384,1.303,1.069,2.208l-5.504,15.842
						C703.511,240.667,702.522,241.146,701.617,240.832z"/>
				</g>
			</g>
			<path style="fill-rule:evenodd;clip-rule:evenodd;fill:#CBD7D7;" d="M641.486,208.715l67.148,0.128
				c1.651,0.003,3.06,0.942,3.698,2.465l6.09,14.528c0.543,1.295,1.537,2.492,0.77,3.646c-0.768,1.154-1.96,1.793-3.346,1.793
				h-23.16c-1.123,0-2.089-0.407-2.873-1.209l-9.331-9.544c-0.785-0.803-1.751-1.209-2.873-1.209h-35.766
				c-0.936,0-1.798-0.322-2.482-0.862v-7.609C639.36,209.672,640.316,208.713,641.486,208.715z"/>
		</g>
		<g>
			<path style="fill:#281B1C;" d="M89.283,334.686c-0.066,0.326-0.132,0.66-0.087,0.99c0.119,0.861,0.965,1.449,1.808,1.662
				c0.843,0.212,1.732,0.158,2.585,0.324c1.471,0.288,2.737,1.201,4.147,1.706c1.528,0.544,3.23,0.591,4.785,0.128
				c0.739-0.221,1.533-0.659,1.676-1.416c0.197-1.039-0.909-1.809-1.851-2.291c-1.317-0.673-2.641-1.379-3.729-2.384
				c-1.087-1.003-1.929-2.352-2.03-3.828c-0.07-1.02,0.108-2.283-0.747-2.842c-0.328-0.215-0.736-0.257-1.127-0.289
				c-0.779-0.065-2.608-0.512-3.301-0.186c-0.756,0.356-0.694,1.31-0.873,2.199C90.121,330.534,89.701,332.61,89.283,334.686z"/>
			<path style="fill:#274459;" d="M86.814,294.846c0.574,1.187,1.229,2.375,1.376,3.685c0.09,0.805-0.017,1.619,0.014,2.427
				c0.037,0.985,0.277,1.949,0.517,2.905c0.473,1.889,0.945,3.778,1.417,5.667c0.198,0.788,0.367,1.711-0.149,2.339
				c-0.256,0.311-0.675,0.549-0.696,0.95c-0.028,0.542,0.656,0.788,1,1.206c0.696,0.847-0.141,2.057-0.284,3.145
				c-0.163,1.241,0.642,2.442,0.546,3.691c-0.087,1.124-0.894,2.108-0.923,3.235c-0.034,1.318,1.049,2.458,2.284,2.922
				c1.235,0.464,2.596,0.4,3.914,0.33c0.292-0.016,0.601-0.036,0.845-0.198c1.091-0.725-0.328-3.022,0.864-3.564
				c0.18-0.082,0.385-0.093,0.564-0.176c0.416-0.195,0.558-0.704,0.666-1.151c1.484-6.154,5.173-11.966,4.647-18.275
				c-0.163-1.96-0.734-3.861-1.303-5.745c-0.638-2.113-1.275-4.225-1.912-6.338c-0.267-0.886-0.542-1.788-1.057-2.557
				c-0.909-1.359-2.444-2.14-3.911-2.863c-1.554-0.765-11.713-6.721-12.616-5.467c-0.619,0.862,1.307,5.821,1.608,6.872
				C84.91,290.268,85.735,292.614,86.814,294.846z"/>
			<path style="fill:#35526D;" d="M97.645,304.857c0.36,1.988,0.701,4.017,0.436,6.018c-0.302,2.285-1.38,4.426-1.578,6.722
				c-0.099,1.148,0.018,2.346-0.415,3.414c-0.346,0.853-1.016,1.547-1.328,2.411c-0.312,0.866-0.049,2.08,0.847,2.285
				c0.713-0.938,0.604-2.257,1.06-3.343c0.236-0.562,0.618-1.049,0.955-1.557c1.454-2.195,2.072-4.822,2.663-7.388
				c0.596-2.586,1.194-5.198,1.21-7.852c0.025-4.268-1.459-8.398-3.205-12.293c-0.549-1.226-1.161-2.484-2.211-3.323
				c-0.322-0.257-0.714-0.478-1.124-0.438c-1.208,0.114-0.223,1.496-0.005,2.099c0.499,1.387,0.671,3.013,0.975,4.456
				C96.539,298.99,97.114,301.919,97.645,304.857z"/>
			<path style="fill:#CA0007;" d="M94.383,309.698c-0.686,0.228-1.39,0.466-1.946,0.928c-0.555,0.463-0.937,1.208-0.764,1.909
				c0.821-0.102,1.62-0.335,2.415-0.566c0.777-0.227,1.721-0.669,1.691-1.477c-0.02-0.537-0.538-0.966-1.073-1.003
				c-0.535-0.036-1.052,0.248-1.42,0.639"/>
			<path style="fill:#CA0007;" d="M92.436,314.014c-0.184,0.108-0.369,0.217-0.553,0.324c0.275,0.645,0.866,1.147,1.547,1.313
				c0.383,0.094,0.881,0.027,1.028-0.339c0.152-0.376-0.183-0.777-0.541-0.968c-0.583-0.312-1.305-0.354-1.921-0.112"/>
			<path style="fill:#99CACA;" d="M60.071,323.624h-5.673v-28.628h5.673V323.624z M54.935,323.088h4.6v-27.555h-4.6V323.088z"/>
			<path style="fill:#99CACA;" d="M59.558,325.006l-4.913-2.837l14.314-24.791l4.913,2.836L59.558,325.006z M55.377,321.973
				l3.984,2.301l13.778-23.864l-3.985-2.301L55.377,321.973z"/>
			<path style="fill:#99CACA;" d="M58.422,325.947l-2.836-4.913l24.791-14.314l2.837,4.913L58.422,325.947z M56.318,321.23
				l2.3,3.984l23.864-13.778l-2.301-3.984L56.318,321.23z"/>
			<path style="fill:#99CACA;" d="M85.594,326.193H56.967v-5.674h28.627V326.193z M57.504,325.656h27.555v-4.6H57.504V325.656z"/>
			<path style="fill:#99CACA;" d="M80.377,339.992l-24.791-14.314l2.836-4.911l24.792,14.313L80.377,339.992z M56.318,325.482
				l23.863,13.778l2.301-3.984l-23.864-13.778L56.318,325.482z"/>
			<path style="fill:#99CACA;" d="M68.959,349.333l-14.314-24.791l4.913-2.837l14.313,24.792L68.959,349.333z M55.377,324.738
				l13.778,23.864l3.984-2.301l-13.778-23.863L55.377,324.738z"/>
			<path style="fill:#99CACA;" d="M60.072,351.715h-5.673v-28.628h5.673V351.715z M54.935,351.179h4.601v-27.555h-4.601V351.179z"/>
			<path style="fill:#99CACA;" d="M45.512,349.333l-4.913-2.836l14.314-24.792l4.913,2.837L45.512,349.333z M41.332,346.302
				l3.984,2.3l13.778-23.864l-3.985-2.3L41.332,346.302z"/>
			<path style="fill:#99CACA;" d="M34.094,339.992l-2.836-4.913l24.792-14.313l2.836,4.912L34.094,339.992z M31.99,335.275
				l2.3,3.985l23.864-13.778l-2.3-3.985L31.99,335.275z"/>
			<path style="fill:#99CACA;" d="M57.504,326.193H28.876v-5.673h28.628V326.193z M29.412,325.656h27.555v-4.6H29.412V325.656z"/>
			<path style="fill:#99CACA;" d="M56.05,325.947l-24.792-14.314l2.836-4.913l24.792,14.314L56.05,325.947z M31.99,311.436
				l23.864,13.778l2.3-3.984L34.29,307.452L31.99,311.436z"/>
			<path style="fill:#99CACA;" d="M54.913,325.006l-14.314-24.792l4.913-2.836l14.314,24.791L54.913,325.006z M41.332,300.411
				l13.777,23.864l3.985-2.301L45.316,298.11L41.332,300.411z"/>
			<path style="fill:#99CACA;" d="M153.657,323.624h-5.673v-28.628h5.673V323.624z M148.52,323.088h4.601v-27.555h-4.601V323.088z"
				/>
			<path style="fill:#99CACA;" d="M153.143,325.006l-4.913-2.837l14.313-24.791l4.913,2.836L153.143,325.006z M148.963,321.973
				l3.984,2.301l13.777-23.864l-3.984-2.301L148.963,321.973z"/>
			<path style="fill:#99CACA;" d="M152.007,325.947l-2.836-4.913l24.792-14.314l2.837,4.913L152.007,325.947z M149.903,321.23
				l2.301,3.984l23.863-13.778l-2.3-3.984L149.903,321.23z"/>
			<path style="fill:#99CACA;" d="M179.18,326.193h-28.627v-5.674h28.627V326.193z M151.089,325.656h27.555v-4.6h-27.555V325.656z"
				/>
			<path style="fill:#99CACA;" d="M173.963,339.992l-24.792-14.314l2.836-4.911l24.792,14.313L173.963,339.992z M149.903,325.482
				l23.864,13.778l2.3-3.984l-23.863-13.778L149.903,325.482z"/>
			<path style="fill:#99CACA;" d="M162.544,349.333l-14.314-24.791l4.913-2.837l14.314,24.792L162.544,349.333z M148.963,324.738
				l13.778,23.864l3.984-2.301l-13.777-23.863L148.963,324.738z"/>
			<path style="fill:#99CACA;" d="M153.657,351.715h-5.673v-28.628h5.673V351.715z M148.521,351.179h4.6v-27.555h-4.6V351.179z"/>
			<path style="fill:#99CACA;" d="M139.097,349.333l-4.912-2.836l14.313-24.792l4.913,2.837L139.097,349.333z M134.917,346.302
				l3.984,2.3l13.778-23.864l-3.984-2.3L134.917,346.302z"/>
			<path style="fill:#99CACA;" d="M127.679,339.992l-2.837-4.913l24.792-14.313l2.837,4.912L127.679,339.992z M125.575,335.275
				l2.301,3.985l23.864-13.778l-2.301-3.985L125.575,335.275z"/>
			<path style="fill:#99CACA;" d="M151.089,326.193h-28.627v-5.673h28.627V326.193z M122.997,325.656h27.555v-4.6h-27.555V325.656z"
				/>
			<path style="fill:#99CACA;" d="M149.634,325.947l-24.792-14.314l2.837-4.913l24.792,14.314L149.634,325.947z M125.575,311.436
				l23.864,13.778l2.301-3.984l-23.864-13.778L125.575,311.436z"/>
			<path style="fill:#99CACA;" d="M148.499,325.006l-14.314-24.792l4.913-2.836l14.314,24.791L148.499,325.006z M134.917,300.411
				l13.778,23.864l3.984-2.301l-13.778-23.864L134.917,300.411z"/>
			<path d="M135.343,275.774v-6.284c0.001-0.308,0.086-0.548,0.225-0.748c0.141-0.198,0.338-0.359,0.627-0.465l0,0l6.094-2.192
				c1.048-0.377,1.592-1.532,1.215-2.58c-0.377-1.048-1.532-1.592-2.58-1.215l-6.094,2.192l0,0
				c-1.048,0.375-1.944,1.059-2.562,1.941c-0.62,0.88-0.96,1.955-0.959,3.068v6.284c0,1.114,0.903,2.017,2.017,2.017
				C134.44,277.791,135.343,276.888,135.343,275.774L135.343,275.774z"/>
			<path style="fill-rule:evenodd;clip-rule:evenodd;fill:#000039;" d="M57.235,290.345c18.05,0,32.682,14.632,32.682,32.682
				c0,18.05-14.632,32.682-32.682,32.682c-18.05,0-32.682-14.632-32.682-32.682C24.553,304.978,39.186,290.345,57.235,290.345z
				 M57.235,293.624c-16.239,0-29.403,13.164-29.403,29.404c0,16.239,13.165,29.403,29.403,29.403
				c16.239,0,29.403-13.164,29.403-29.403C86.639,306.789,73.474,293.624,57.235,293.624z"/>
			<path style="fill-rule:evenodd;clip-rule:evenodd;fill:#98B8B8;" d="M57.235,293.624c16.239,0,29.403,13.164,29.403,29.404
				c0,16.239-13.164,29.403-29.403,29.403c-16.239,0-29.403-13.164-29.403-29.403C27.832,306.789,40.996,293.624,57.235,293.624z
				 M57.235,295.701c-15.092,0-27.326,12.235-27.326,27.327c0,15.092,12.235,27.327,27.326,27.327
				c15.092,0,27.327-12.235,27.327-27.327C84.562,307.936,72.327,295.701,57.235,295.701z"/>
			<path style="fill-rule:evenodd;clip-rule:evenodd;fill:#99CACA;" d="M57.236,325.87c1.565,0,2.841-1.276,2.841-2.842
				c0-1.566-1.277-2.842-2.841-2.842c-1.566,0-2.842,1.276-2.842,2.842C54.393,324.594,55.67,325.87,57.236,325.87z"/>
			<path style="fill-rule:evenodd;clip-rule:evenodd;fill:#B00000;" d="M56.917,289.695c-0.511,0-1.02,0.014-1.526,0.036v0.631
				c0,0.908,0.738,1.649,1.646,1.652c16.775,0.062,30.336,13.415,30.874,29.99c0.029,0.891,0.761,1.599,1.651,1.599h0.679
				c0.004-0.192,0.007-0.383,0.007-0.576C90.25,304.618,75.326,289.695,56.917,289.695z"/>
			<path style="fill-rule:evenodd;clip-rule:evenodd;fill:#000039;" d="M150.821,290.345c18.05,0,32.682,14.632,32.682,32.682
				c0,18.05-14.632,32.682-32.682,32.682s-32.682-14.632-32.682-32.682C118.138,304.978,132.771,290.345,150.821,290.345z
				 M150.821,293.624c-16.239,0-29.403,13.164-29.403,29.404c0,16.239,13.164,29.403,29.403,29.403s29.403-13.164,29.403-29.403
				C180.224,306.789,167.06,293.624,150.821,293.624z"/>
			<path style="fill-rule:evenodd;clip-rule:evenodd;fill:#98B8B8;" d="M150.821,293.624c16.239,0,29.403,13.164,29.403,29.404
				c0,16.239-13.164,29.403-29.403,29.403s-29.403-13.164-29.403-29.403C121.417,306.789,134.581,293.624,150.821,293.624z
				 M150.821,295.701c-15.092,0-27.327,12.235-27.327,27.327c0,15.092,12.235,27.327,27.327,27.327
				c15.092,0,27.326-12.235,27.326-27.327C178.147,307.936,165.913,295.701,150.821,295.701z"/>
			<path style="fill-rule:evenodd;clip-rule:evenodd;fill:#99CACA;" d="M150.821,325.87c1.565,0,2.842-1.276,2.842-2.842
				c0-1.566-1.277-2.842-2.842-2.842c-1.565,0-2.842,1.276-2.842,2.842C147.979,324.594,149.256,325.87,150.821,325.87z"/>
			<path style="fill-rule:evenodd;clip-rule:evenodd;fill:#B00000;" d="M150.821,289.695c0.512,0,1.02,0.014,1.526,0.036v0.631
				c0,0.908-0.739,1.649-1.646,1.652c-16.775,0.062-30.336,13.415-30.874,29.99c-0.029,0.891-0.76,1.599-1.652,1.599h-0.679
				c-0.003-0.192-0.007-0.383-0.007-0.576C117.488,304.618,132.411,289.695,150.821,289.695z"/>
			<path style="fill-rule:evenodd;clip-rule:evenodd;fill:#DA0100;" d="M100.228,333.652c0.773,0.211,1.23,1.008,1.019,1.782
				c-0.21,0.773-1.008,1.229-1.782,1.018l-42.611-11.696c-0.773-0.211-1.229-1.009-1.019-1.782c0.033-0.12,0.079-0.232,0.138-0.336
				l24.465-42.956c0.396-0.697,1.284-0.942,1.981-0.547c0.698,0.397,0.943,1.284,0.547,1.981l-23.543,41.334L100.228,333.652z"/>
			<path style="fill-rule:evenodd;clip-rule:evenodd;fill:#B50208;" d="M100.053,334.29l-41.626-11.426l23.964-42.073
				c0.217-0.379,0.081-0.864-0.298-1.079c-0.38-0.216-0.864-0.081-1.08,0.299l-24.465,42.956l-0.074,0.181
				c-0.115,0.421,0.136,0.856,0.556,0.971l42.611,11.697c0.419,0.115,0.855-0.137,0.969-0.555
				C100.724,334.84,100.473,334.405,100.053,334.29z"/>
			<path style="fill-rule:evenodd;clip-rule:evenodd;fill:#DA0100;" d="M79.773,281.037c-0.352-1.065,0.226-2.214,1.291-2.566
				c1.065-0.353,2.215,0.225,2.567,1.291l18.145,54.654c0.352,1.064-0.226,2.214-1.291,2.566c-1.065,0.353-2.214-0.225-2.566-1.291
				L79.773,281.037z"/>
			<path style="fill-rule:evenodd;clip-rule:evenodd;fill:#B00000;" d="M80.401,280.83l18.145,54.652
				c0.239,0.719,1.012,1.11,1.732,0.872c0.718-0.237,1.11-1.012,0.871-1.731l-18.145-54.653c-0.239-0.719-1.012-1.11-1.732-0.872
				C80.554,279.336,80.162,280.111,80.401,280.83z"/>
			<path style="fill-rule:evenodd;clip-rule:evenodd;fill:#779696;" d="M151.31,321.662c0.755,0.27,1.147,1.101,0.877,1.855
				c-0.27,0.755-1.101,1.147-1.856,0.877c-3.821-1.378-9.732-7.891-13.817-16.349c-3.102-6.422-5.222-14.023-4.671-21.415
				c0.06-0.802,0.758-1.403,1.56-1.343c0.802,0.059,1.403,0.758,1.343,1.56c-0.509,6.831,1.48,13.916,4.387,19.934
				C142.902,314.587,148.091,320.5,151.31,321.662z"/>
			<path style="fill-rule:evenodd;clip-rule:evenodd;fill:#DA0100;" d="M101.043,335.878c-0.456,0.661-1.361,0.826-2.021,0.37
				c-0.66-0.455-0.826-1.361-0.37-2.021l33.186-47.935v-5.433c-4.861,7.226-9.864,13.991-15.528,19.472
				c-6.284,6.08-13.353,10.556-21.884,12.296c-0.107,0.022-0.214,0.068-0.323,0.065c-0.896-0.03-1.369-1.99-0.926-2.716
				c0.049-0.081,0.228-0.113,0.322-0.131c8.08-1.566,14.796-5.803,20.785-11.598c6.479-6.27,12.142-14.394,17.756-22.96
				c0.254-0.429,0.721-0.718,1.257-0.718c0.805,0,1.457,0.653,1.457,1.457v10.712h-0.005c0,0.285-0.083,0.573-0.257,0.825
				L101.043,335.878z"/>
			<path style="fill-rule:evenodd;clip-rule:evenodd;fill:#B50208;" d="M134.091,286.079v-10.052c0-0.439-0.356-0.797-0.796-0.797
				c-0.284,0-0.543,0.15-0.687,0.394l-0.008,0.013l-0.009,0.013c-5.251,8.011-10.945,16.391-17.85,23.072
				c-5.979,5.786-12.796,10.143-21.055,11.759c-0.08,0.46,0.14,1.447,0.395,1.552l0.211-0.054
				c8.452-1.724,15.419-6.184,21.556-12.123c5.9-5.709,10.868-12.57,15.44-19.365l1.21-1.798v7.806l-33.303,48.104
				c-0.249,0.359-0.157,0.853,0.202,1.101c0.36,0.249,0.853,0.157,1.102-0.203l33.447-48.313c0.092-0.132,0.14-0.288,0.14-0.448
				l-0.001-0.662H134.091z"/>
			<path style="fill-rule:evenodd;clip-rule:evenodd;fill:#99CACA;" d="M99.468,340.354c3.341,0,6.066-2.725,6.066-6.067
				c0-3.341-2.725-6.066-6.066-6.066c-3.341,0-6.067,2.725-6.067,6.066C93.401,337.63,96.127,340.354,99.468,340.354z"/>
			<path style="fill-rule:evenodd;clip-rule:evenodd;fill:#7BA3A3;" d="M99.468,337.567c1.806,0,3.279-1.472,3.279-3.279
				c0-1.806-1.473-3.279-3.279-3.279c-1.806,0-3.28,1.473-3.28,3.279C96.188,336.095,97.662,337.567,99.468,337.567z"/>
			<path style="fill-rule:evenodd;clip-rule:evenodd;fill:#CA0007;" d="M61.463,206.058l33.82,16.579
				c0.659,0.323,0.799,1.398,0.313,2.39l-21.921,44.716c-0.486,0.991-1.422,1.539-2.081,1.216l-33.82-16.579
				c-0.658-0.323-0.799-1.398-0.313-2.39l21.921-44.716C59.869,206.283,60.806,205.735,61.463,206.058z"/>
			<path style="fill-rule:evenodd;clip-rule:evenodd;fill:#B10B09;" d="M62.044,209.775l29.947,14.681
				c0.583,0.286,0.707,1.238,0.277,2.116l-8.055,16.431c-13.89,1.291-20.305-20.739-38.312-2.978l14.301-29.173
				C60.632,209.974,61.461,209.489,62.044,209.775z"/>
			<path style="fill-rule:evenodd;clip-rule:evenodd;fill:#FFFFFF;" d="M72.112,227.67c6.048,2.965,8.549,10.269,5.586,16.314
				c-0.125,0.254-0.257,0.502-0.396,0.742l-4.343-4.863l3.309-1.041l-10.994-12.31C67.538,226.235,69.908,226.59,72.112,227.67z
				 M72.851,249.172c-3.399,1.959-7.681,2.245-11.47,0.388c-5.643-2.766-8.197-9.31-6.108-15.083l6.216,4.742l-4.038,1.271
				L72.851,249.172z M61.868,225.746l-10.404,3.275l14.366,10.958l-3.308,1.041l17.621,9.934l-10.792-12.083l3.309-1.041
				L61.868,225.746z"/>
			<path style="fill:#9E765A;" d="M126.787,215.172c0.315,0.421,0.735,0.761,1.003,1.213c0.268,0.452,0.34,1.092-0.033,1.462
				c-0.355,0.353-0.943,0.313-1.374,0.568c-0.505,0.298-0.694,0.939-0.718,1.526c-0.024,0.586-0.567,1.496-0.689,2.07
				c-0.335,1.58-1.936,3.128-3.55,3.184c-1.613,0.056-3.425-0.93-5.011-0.626c-1.813,0.348-2.755,1.113-3.817,2.622
				c-1.063,1.51-1.719,3.262-2.365,4.991c-1.557-0.715-3.115-1.431-4.672-2.146c-0.548-0.252-1.129-0.534-1.43-1.056
				c-0.306-0.53-0.25-1.203-0.038-1.777c0.212-0.574,0.564-1.085,0.848-1.627c0.828-1.584,1.056-3.474,0.627-5.209
				c-0.516-2.089-1.917-3.873-2.463-5.955c-0.925-3.527-0.047-8.98,2.766-11.298c2.814-2.318,7.502-3.537,11.119-3.08
				c9.083,1.149,11.171,7.517,10.028,10.933C126.524,212.443,125.708,213.732,126.787,215.172z"/>
			<path style="fill:#D6E8E8;" d="M121.491,225.04c0.168,0.113,0.345,0.228,0.545,0.257c0.197,0.029,0.396-0.029,0.581-0.102
				c1.268-0.502,2.09-1.71,2.834-2.853c0.531-0.815,1.062-1.63,1.593-2.445c0.368-0.565,0.738-1.134,0.992-1.758
				c0.106-0.261,0.193-0.539,0.172-0.82c-0.023-0.319-0.18-0.611-0.348-0.882c-0.257-0.415-0.549-0.809-0.871-1.177
				c-0.066-0.076-0.14-0.155-0.238-0.182c-0.114-0.03-0.233,0.016-0.336,0.072c-0.346,0.19-0.617,0.5-0.973,0.67
				c-0.492,0.236-1.069,0.174-1.61,0.106c-1.298-0.161-2.596-0.323-3.894-0.485c-0.184,0.262-0.098,0.616-0.078,0.935
				c0.045,0.712-0.276,1.39-0.59,2.031c-0.471,0.964-0.962,1.953-1.765,2.663c-0.923,0.815,0.36,1.293,0.979,1.78
				C119.458,223.618,120.462,224.348,121.491,225.04z"/>
			<path style="fill:#C1D3D2;" d="M120.653,217.234c0.061-0.191,0.115-0.396,0.255-0.541c0.337-0.348,0.91-0.158,1.374-0.018
				c1.099,0.329,2.324,0.213,3.341-0.319c0.283-0.148,0.588-0.332,0.898-0.255c0.47,0.117,0.587,0.796,0.316,1.197
				c-0.271,0.402-0.765,0.58-1.231,0.713c-0.466,0.133-0.963,0.26-1.3,0.608l-0.127,0.221c-0.026,0.207,0.202,0.342,0.389,0.431
				c0.288,0.138,0.582,0.327,0.691,0.627c0.11,0.3-0.081,0.713-0.4,0.709c-0.132-0.001-0.253-0.07-0.368-0.135
				c-0.427-0.237-1.081-0.372-1.306,0.062c-0.219,0.422,0.226,0.86,0.511,1.241c0.063,0.085,0.121,0.179,0.128,0.284
				c0.022,0.346-0.488,0.465-0.797,0.308c-0.308-0.157-0.548-0.456-0.886-0.528c-0.526-0.112-1.033,0.543-0.794,1.024
				c0.138,0.277,0.437,0.437,0.618,0.688c0.182,0.251,0.146,0.716-0.162,0.75c-0.13,0.014-0.252-0.059-0.362-0.128
				c-0.806-0.512-1.605-1.034-2.437-1.504c-0.497-0.281-1.097-0.547-0.927-1.211c0.183-0.71,0.993-1.456,1.408-2.05
				C119.958,218.736,120.411,218.025,120.653,217.234z"/>
			<path style="fill:#252828;" d="M125.012,202.764c-1.556-1.507-3.609-2.408-5.701-2.97c-1.185-0.318-2.408-0.539-3.634-0.482
				c-0.918,0.042-1.822,0.24-2.712,0.467c-2.001,0.51-3.968,1.176-5.815,2.097c-1.9,0.948-3.763,2.28-4.55,4.253
				c-0.392,0.983-0.488,2.054-0.579,3.108c-0.189,2.178-0.344,4.519,0.771,6.399c0.265,0.447,0.602,1.005,0.31,1.435
				c-0.107,0.158-0.279,0.255-0.42,0.382c-0.58,0.52-0.492,1.596,0.166,2.015c0.219,0.139,0.505,0.241,0.575,0.49
				c0.055,0.195-0.054,0.397-0.061,0.599c-0.01,0.277,0.197,0.546,0.467,0.609c0.305,0.07,0.726-0.055,0.867,0.225
				c0.105,0.208-0.067,0.44-0.149,0.658c-0.242,0.645,0.448,1.363,1.134,1.315c0.687-0.048,1.232-0.652,1.431-1.311
				c0.199-0.659,0.124-1.366,0.04-2.049c0.549,0.129,1.183,0.103,1.605-0.271c0.422-0.374,0.461-1.169-0.03-1.447
				c0.406-0.232,0.453-0.818,0.286-1.254c-0.167-0.437-0.488-0.799-0.674-1.228c-0.438-1.013-0.043-2.204,0.573-3.12
				c0.556-0.826,1.36-1.565,2.346-1.701c0.986-0.136,2.111,0.554,2.151,1.549c0.009,0.209-0.028,0.422,0.022,0.625
				c0.137,0.56,0.908,0.764,1.415,0.491c0.508-0.273,0.773-0.853,0.894-1.417c0.062-0.292,0.119-0.629,0.373-0.787
				c0.121-0.075,0.268-0.094,0.41-0.105c0.557-0.044,1.125,0.012,1.672-0.104c0.547-0.116,1.098-0.459,1.238-1.001
				c0.097-0.376-0.018-0.776,0.04-1.159c0.108-0.704,0.887-1.225,1.578-1.056c0.184,0.045,0.36,0.133,0.488,0.273
				c0.181,0.197,0.247,0.472,0.396,0.694c0.335,0.5,1.12,0.619,1.588,0.241c0.25-0.201,0.402-0.506,0.654-0.705
				s0.697-0.231,0.836,0.059c0.069,0.145,0.034,0.317,0.07,0.473c0.078,0.348,0.492,0.53,0.844,0.479
				c0.352-0.051,0.653-0.272,0.938-0.485c0.205,0.199,0.538,0.106,0.668-0.124c0.151-0.266-0.027-0.359-0.085-0.598
				c-0.152-0.629-0.145-1.292-0.303-1.933C126.808,205.014,126.03,203.75,125.012,202.764z"/>
			<path style="fill:#E0DAD7;" d="M123.084,213.526l-0.077,0.036l0,0.138l0.121,0.088c0.38,0.189,0.78,0.337,1.191,0.44l0.162,0.02
				c0.164-0.017,0.265-0.186,0.322-0.341c0.113-0.309,0.149-0.821-0.303-0.758C124.028,213.214,123.544,213.403,123.084,213.526z"/>
			<path style="fill:#252828;" d="M125.605,211.482c-0.849-1.145-2.65-0.354-3.369,0.528c-0.161,0.199,0.121,0.484,0.284,0.284
				c0.329-0.403,0.746-0.708,1.247-0.86c0.477-0.144,1.157-0.202,1.492,0.251C125.41,211.89,125.759,211.691,125.605,211.482z"/>
			<path style="fill:#252828;" d="M125.216,212.582l-0.035-0.009c-0.182,0.286-0.451,0.428-0.746,0.522l-0.056,0.017
				c-0.143,0.042-0.291,0.075-0.438,0.108c-0.446,0.101-0.891,0.202-1.332,0.327l-0.065,0.059l-0.017,0.008l-0.015,0.057
				c0.153,0.198,0.478,0.27,0.706,0.356c0.186,0.071,0.372,0.141,0.556,0.215c0.201,0.08,0.517,0.15,0.683,0.296l0.063-0.017
				l0.016-0.086l0.021-0.007c0.39-0.19,0.579-0.936,0.322-1.3C125.058,213.002,125.184,212.829,125.216,212.582z M124.471,214.253
				l0.016-0.005l-0.006,0.018L124.471,214.253z M124.504,213.311l0.054-0.005l0.039,0.004l0.049,0.065l0.011,0.064
				c-0.023,0.092-0.104,0.203-0.157,0.23c-0.104,0.055-0.175,0.032-0.21-0.022l-0.013-0.104l0.138-0.201L124.504,213.311z
				 M123.18,213.642c0.268-0.049,0.538-0.104,0.801-0.172c-0.065,0.127-0.089,0.291-0.084,0.412l0.01,0.074l-0.05-0.019
				C123.693,213.872,123.437,213.733,123.18,213.642z"/>
			<path style="fill:#C1D3D2;" d="M117.508,221.615c-1.609-0.959-4.418-2.181-6.251-3.822l-0.247,0.077
				c1.997,1.776,4.994,3.142,6.37,3.962C117.521,221.916,117.647,221.698,117.508,221.615z"/>
			<path style="fill:#C1D3D2;" d="M120.174,215.643c-1.341-1.14-4.614-3.671-7.306-4.148c0.104,0.094,0.209,0.187,0.296,0.304
				c0.079,0.107,0.153,0.204,0.215,0.322c2.556,0.785,5.596,2.832,6.618,3.7C120.119,215.926,120.298,215.748,120.174,215.643z"/>
			<path style="fill:#775A46;" d="M111.674,213.663c0.129-0.157,0.31-0.263,0.432-0.425c0.203-0.269,0.2-0.664,0.024-0.95
				c-0.058-0.093-0.132-0.177-0.226-0.235c-0.204-0.129-0.469-0.117-0.7-0.046c-0.632,0.194-1.082,0.798-1.218,1.445
				c-0.137,0.646,0.001,1.325,0.251,1.936c0.155,0.379,0.433,0.791,0.841,0.787l0.222-0.075l0.098-0.167
				c0.148-0.365,0.483-0.84,0.292-1.225C111.512,214.35,111.37,214.031,111.674,213.663z"/>
			<path style="fill:#A11211;" d="M105.541,216.742c0.663-0.063,1.447-0.209,1.71-0.82c0.144-0.334,0.082-0.715,0.065-1.079
				c-0.089-1.983,1.483-3.904,3.444-4.21c0.966-0.15,1.947,0.049,2.924,0.092c0.976,0.043,2.044-0.112,2.725-0.813
				c0.457-0.471,0.698-1.147,1.245-1.51c0.347-0.23,0.772-0.302,1.184-0.366c3.137-0.485,6.297-0.817,9.465-0.995
				c0.278-2.514-0.904-5.057-2.761-6.775c-1.858-1.718-4.319-2.676-6.815-3.087c-4.263-0.703-8.764,0.137-12.488,2.329
				c-2.071,1.22-3.931,2.879-5.095,4.982c-1.59,2.872-1.758,6.414-0.801,9.555c0.289,0.951,0.732,1.96,1.538,2.586
				C102.822,217.364,104.429,216.847,105.541,216.742z"/>
			<path style="fill:#CA0007;" d="M108.013,210.57c1.47-0.96,3.328-1.182,5.069-0.954c0.425,0.056,0.853,0.137,1.281,0.102
				c0.767-0.063,1.455-0.494,2.048-0.986c0.592-0.492,1.125-1.059,1.769-1.48c1.151-0.753,2.563-0.982,3.935-1.069
				c0.654-0.042,1.326-0.058,1.935-0.3c0.609-0.242,1.157-0.77,1.207-1.423c0.067-0.863-0.714-1.552-1.492-1.932
				c-1.202-0.587-2.553-0.803-3.889-0.887c-3.125-0.194-6.328,0.326-9.114,1.755c-2.786,1.43-5.127,3.805-6.266,6.722
				c-0.415,1.064-0.671,2.197-0.686,3.339c-0.006,0.483,0.035,0.984,0.263,1.41c0.228,0.426,0.684,0.76,1.165,0.719
				c0.612-0.051,0.598-0.474,0.572-0.94c-0.03-0.539,0.054-1.075,0.232-1.583C106.398,212.047,107.115,211.158,108.013,210.57z"/>
			<path style="fill:#CA0007;" d="M105.36,204.48c2.319-2.627,5.638-4.326,9.114-4.765c1.888-0.238,3.801-0.119,5.701-0.019
				c0.353,0.019,0.827-0.061,0.86-0.413c0.011-0.118-0.038-0.232-0.098-0.334c-0.269-0.451-0.758-0.725-1.248-0.914
				c-1.802-0.698-3.823-0.517-5.717-0.132c-1.584,0.322-3.142,0.781-4.649,1.368c-2.652,1.033-5.248,2.563-6.751,4.98
				c-0.557,0.896-0.947,1.888-1.24,2.901c-0.58,2.006-0.789,4.13-0.494,6.198c0.043,0.303,0.42,2.292,0.972,2.056
				c0.331-0.142,0.129-1.611,0.128-1.887c-0.011-2.074,0.481-4.137,1.392-5.998C103.868,206.424,104.551,205.396,105.36,204.48z"/>
			<path style="fill:#A11211;" d="M111.852,229.5c-0.192,0.569-0.384,1.138-0.576,1.707c1.463,1.879,2.284,4.247,2.298,6.628
				c0.012,2.012-0.53,3.981-1.068,5.919c-1.974,7.112-4.003,14.347-8.015,20.542c-0.497,0.768-1.045,1.594-0.984,2.506
				c0.04,0.604,0.351,1.191,0.25,1.788c-0.101,0.595-0.579,1.038-0.924,1.533c-0.641,0.922-0.834,2.14-0.509,3.213
				c-5.021,1.257-10.193,2.295-15.344,1.785c-2.656-0.263-5.271-0.939-7.721-1.998c-1.327-0.573-2.722-1.388-3.161-2.766
				c-0.303-0.949-0.085-1.977,0.147-2.946c2.286-9.55,5.775-18.846,10.739-27.319c2.6-4.439,5.785-8.808,10.375-11.132
				c1.793-0.907,3.812-1.515,5.212-2.957c1.788-1.841,2.217-1.272,4.106,0.004C107.149,226.326,111.933,229.262,111.852,229.5z"/>
			<path style="fill:#A11211;" d="M100.329,239.787c2.664,6.639,5.807,13.087,9.396,19.275c0.544,0.938,1.105,1.881,1.858,2.663
				c1.377,1.431,3.276,2.215,5.117,2.96c1.938,0.785,3.896,1.576,5.96,1.905c1.46,0.233,2.947,0.232,4.425,0.23
				c1.431-0.001,2.862-0.003,4.293-0.005c0.197,0,0.412-0.006,0.565-0.131c0.158-0.13,0.203-0.351,0.238-0.553
				c0.261-1.526,0.523-3.053,0.784-4.58c0.047-0.272,0.085-0.578-0.083-0.797c-0.138-0.18-0.376-0.244-0.597-0.296
				c-0.575-0.139-1.15-0.277-1.725-0.415c-0.193,0.212-0.385,0.424-0.577,0.636c0.134-0.751-0.695-1.283-1.394-1.59
				c-2.213-0.972-4.426-1.944-6.639-2.916c-0.32-0.14-0.675-0.283-1.007-0.174c-0.226,0.073-0.406,0.255-0.635,0.314
				c-0.468,0.122-0.923-0.343-0.981-0.822c-0.058-0.481,0.158-0.946,0.368-1.383c-1.445-0.868-2.308-2.427-3.104-3.914
				c-1.97-3.68-3.941-7.361-5.91-11.041c-0.777-1.451-1.602-2.957-2.951-3.901C104.466,232.97,98.593,235.461,100.329,239.787z"/>
			<path style="fill:#CA0007;" d="M109.582,246.467c1.983,2.874,4.597,5.702,4.636,9.194c0.003,0.267-0.008,0.544,0.095,0.792
				c0.169,0.407,0.664,0.646,1.088,0.525c0.423-0.121,0.718-0.585,0.647-1.02c0.673-0.002,0.814,0.96,0.661,1.615
				c-0.153,0.656-0.259,1.552,0.363,1.808c0.46-0.547,0.92-1.093,1.379-1.639c0.204,0.591,0.409,1.183,0.613,1.774
				c1.848-0.771,3.852,0.443,5.69,1.237c1.757,0.759,3.67,1.153,5.584,1.149c-0.37-0.664-1.047-1.089-1.711-1.457
				c-2.274-1.262-4.728-2.197-7.266-2.766c-1.13-0.253-2.507-0.649-2.745-1.781c-0.069-0.328-0.022-0.672-0.079-1.002
				c-0.162-0.929-1.064-1.503-1.795-2.1c-3.721-3.045-5.745-9.531-7.05-13.995c-0.452-1.546-0.843-2.788-2.227-3.743
				c-3.003-2.073-3.581,0.247-2.462,2.772C106.322,240.805,107.727,243.781,109.582,246.467z"/>
			<path style="fill:#CA0007;" d="M107.009,254.893c0.626,1.34,0.435,2.95-0.171,4.299c-0.607,1.35-1.588,2.491-2.568,3.6
				c-0.991,1.12-2.065,2.458-1.804,3.93c0.064,0.367,0.212,0.745,0.097,1.099c-0.21,0.646-1.151,0.812-1.37,1.454
				c-0.208,0.611,0.357,1.328,0.051,1.896c-0.288,0.534-1.162,0.431-1.528-0.052c-0.365-0.484-0.355-1.148-0.287-1.75
				c0.229-2.012,0.938-3.967,2.052-5.658c0.83-1.258,1.896-2.407,2.335-3.849c0.38-1.249,0.248-2.587,0.309-3.89
				C104.249,253.318,105.663,252.012,107.009,254.893z"/>
			<path style="fill:#CA0007;" d="M111.008,233.843c0.027,1.301,0.054,2.602,0.081,3.904c0.005,0.239,0.036,0.522,0.247,0.636
				c0.322,0.172,0.651-0.226,0.763-0.574c0.474-1.482-0.022-3.226-1.206-4.237"/>
			<path style="fill:#9E765A;" d="M136.475,264.723c0.672-0.738,1.217-1.795,2.211-1.893c0.739-0.074,1.508,0.446,2.193,0.156
				c0.12-0.051,0.232-0.126,0.361-0.143c0.382-0.052,0.622,0.38,0.819,0.712c0.305,0.515,0.768,0.934,1.31,1.189
				c0.554-0.776,0.8-1.766,0.675-2.711c-0.028-0.21-0.078-0.428-0.218-0.588c-0.225-0.258-0.605-0.289-0.94-0.354
				c-0.651-0.125-1.251-0.434-1.891-0.608c-1.019-0.278-2.096-0.203-3.15-0.126c-1.154,0.084-2.307,0.167-3.462,0.252
				c-0.371,0.027-0.767,0.063-1.056,0.297c-0.389,0.317-0.452,0.876-0.5,1.377c-0.093,0.98-0.977,3.341-0.126,3.881
				C133.637,266.758,135.897,265.356,136.475,264.723z"/>
			<path style="fill:#9E765A;" d="M134.152,260.681c-0.096,0.021-0.195-0.087-0.166-0.181c0.646-0.43,1.203-0.991,1.63-1.639
				c0.261-0.396,0.6-0.888,1.066-0.806c0.297,0.053,0.494,0.328,0.659,0.581c0.189,0.29,0.385,0.603,0.381,0.949
				c-0.006,0.466-0.389,0.859-0.824,1.025c-0.435,0.166-0.914,0.154-1.38,0.139c-0.551-0.018-1.11-0.037-1.636-0.203
				c0.53,0.05,1.076-0.098,1.509-0.408"/>
			<path style="fill:#CA0007;" d="M91.412,311.379c0.557-0.742,1.114-1.485,1.671-2.227"/>
			<path style="fill:#281B1C;" d="M103.102,316.622c-0.761,1.289-1.743,2.822-1.052,4.15c0.66,1.266,2.372,1.405,3.662,2.015
				c1.019,0.482,1.825,1.309,2.733,1.973c1.418,1.037,3.117,1.686,4.864,1.857c0.552,0.054,1.133,0.056,1.631-0.188
				c0.498-0.244,0.881-0.798,0.766-1.341c-0.058-0.271-0.227-0.503-0.393-0.727c-2.352-3.157-4.934-6.57-4.882-10.507
				c0.008-0.614,0.049-1.319-0.396-1.742c-0.252-0.239-0.608-0.329-0.946-0.409c-1.573-0.372-3.288-1.398-4.142,0.039
				C104.103,313.166,104.026,315.122,103.102,316.622z"/>
			<path style="fill:#35526D;" d="M79.873,279.896c0.878,1.022,2.082,1.697,3.259,2.35c7.027,3.9,14.164,7.845,21.98,9.715
				c1.179,0.283,2.523,0.629,3.069,1.711c0.541,1.073,0.036,2.345-0.338,3.487c-0.374,1.141-0.511,2.621,0.457,3.331
				c-1.561,0.516-2.494,2.43-1.938,3.978c0.108,0.301,0.265,0.595,0.277,0.916c0.023,0.685-0.598,1.189-1.031,1.72
				c-0.914,1.122-1.068,2.807-0.373,4.077c1.545,1.188,3.513,1.649,5.414,2.08c0.188,0.043,0.387,0.086,0.571,0.029
				c0.697-0.217,0.362-1.329,0.766-1.937c0.275-0.415,0.836-0.503,1.279-0.73c0.735-0.375,1.161-1.151,1.543-1.883
				c2.154-4.122,4.308-8.244,6.462-12.367c0.58-1.109,1.169-2.247,1.337-3.487c0.211-1.555-0.263-3.133-0.985-4.527
				c-1.777-3.432-4.961-5.906-8.226-7.976c-3.265-2.069-6.741-3.871-9.594-6.48c-0.277-0.253-0.566-0.524-0.932-0.613
				c-0.239-0.057-0.489-0.031-0.733-0.006c-5.928,0.616-11.935,0.447-17.82-0.489c-1.813-0.288-5.564-2.023-6.596,0.228
				C76.842,274.951,78.645,278.465,79.873,279.896z"/>
			<path style="fill:#3D5E77;" d="M109.191,286.701c0.796,0.307,1.707,0.72,1.898,1.552c0.178,0.775-0.373,1.606-0.108,2.356
				c0.308,0.872,1.508,1.091,1.976,1.89c0.471,0.803,0.026,1.813-0.417,2.631c-0.503,0.93-1.007,1.859-1.51,2.788
				c-0.185,0.341-0.374,0.701-0.37,1.088c0.009,0.791,0.774,1.32,1.275,1.933c0.501,0.612,0.549,1.821-0.234,1.93
				c-0.438-0.36-0.915-0.737-1.48-0.775s-1.193,0.448-1.068,1c0.103,0.458,0.662,0.79,0.574,1.251
				c-0.13,0.683-1.454,0.595-1.497,1.289c-0.016,0.259,0.18,0.478,0.257,0.727c0.13,0.418-0.087,0.855-0.28,1.248
				c-0.577,1.172-0.99,2.424-1.224,3.709c-0.856-0.112-1.16-1.259-0.897-2.083c0.262-0.822,0.863-1.512,1.077-2.348
				c0.419-1.639-0.661-3.68,0.49-4.919c0.497-0.536,1.349-0.805,1.531-1.512c0.126-0.487-0.132-0.98-0.249-1.469
				c-0.495-2.082,1.524-4.48,0.302-6.236c-0.338-0.487-0.869-0.798-1.394-1.072c-3.919-2.048-8.366-2.826-12.487-4.432
				c-4.675-1.822-8.864-4.682-12.956-7.586c-0.927-0.658-1.887-1.361-2.384-2.382c-0.497-1.021-0.346-2.454,0.629-3.036
				c0.591-0.353,1.326-0.322,2.013-0.28c2.011,0.123,4.251-0.075,6.042,0.965c2.179,1.265,4.11,3.092,6.232,4.476
				C99.414,282.325,104.2,284.775,109.191,286.701z"/>
			<path style="fill:#CA0007;" d="M95.137,225.669c3.082,2.193,6.164,4.386,9.246,6.579c3.994,2.842,7.412,5.521,7.795,10.786
				c0.059,0.805,1.319,0.811,1.26,0c-0.28-3.849-1.862-6.822-4.841-9.273c-4.033-3.317-8.569-6.152-12.824-9.18
				C95.112,224.109,94.482,225.202,95.137,225.669z"/>
			<path style="fill:#CA0007;" d="M75.853,266.605c8.624-5.605,18.223-9.469,26.795-15.161c0.673-0.447,0.042-1.539-0.636-1.089
				c-8.571,5.693-18.171,9.556-26.796,15.162C74.539,265.957,75.17,267.049,75.853,266.605z"/>
		</g>
		<g>
			<path style="fill-rule:evenodd;clip-rule:evenodd;fill:#000044;" d="M258.737,303.792c14.337,0,25.959,11.622,25.959,25.959
				c0,14.337-11.622,25.959-25.959,25.959c-14.337,0-25.959-11.622-25.959-25.959C232.778,315.415,244.4,303.792,258.737,303.792
				 M258.737,310.461c-10.654,0-19.291,8.637-19.291,19.291c0,10.654,8.637,19.291,19.291,19.291
				c10.654,0,19.291-8.637,19.291-19.291C278.028,319.097,269.391,310.461,258.737,310.461"/>
			<path style="fill-rule:evenodd;clip-rule:evenodd;fill:#A9C2C2;" d="M258.737,310.461c10.654,0,19.291,8.637,19.291,19.291
				c0,10.654-8.637,19.291-19.291,19.291c-10.654,0-19.291-8.637-19.291-19.291C239.446,319.097,248.083,310.461,258.737,310.461
				 M258.737,317.725c-6.642,0-12.026,5.384-12.026,12.026c0,6.643,5.384,12.027,12.026,12.027c6.642,0,12.027-5.385,12.027-12.027
				C270.763,323.109,265.379,317.725,258.737,317.725"/>
			<path style="fill:#7E9191;" d="M258.737,343.398c-7.536,0-13.647-6.111-13.647-13.647s6.111-13.647,13.647-13.647
				c7.536,0,13.647,6.111,13.647,13.647S266.273,343.398,258.737,343.398 M258.737,312.08c-9.76,0-17.67,7.911-17.67,17.671
				c0,9.76,7.911,17.671,17.67,17.671c9.76,0,17.671-7.911,17.671-17.671C276.408,319.992,268.497,312.08,258.737,312.08"/>
			<path style="fill-rule:evenodd;clip-rule:evenodd;fill:#A9C2C2;" d="M256.384,325.473c0.317-0.175,0.65-0.311,0.992-0.41
				l0.647-8.409h0.714h0.715l0.647,8.409c0.341,0.099,0.675,0.236,0.992,0.41l6.404-5.488l0.505,0.505l0.505,0.505l-5.489,6.404
				c0.175,0.317,0.311,0.651,0.41,0.992l8.41,0.647v0.714v0.715l-8.41,0.647c-0.098,0.341-0.235,0.674-0.41,0.992l5.489,6.404
				L268,339.014l-0.505,0.505l-6.404-5.489c-0.317,0.175-0.65,0.311-0.992,0.41l-0.647,8.41h-0.715h-0.714l-0.647-8.409
				c-0.342-0.099-0.675-0.237-0.992-0.41l-6.404,5.488l-0.505-0.505l-0.505-0.505l5.489-6.404c-0.175-0.317-0.311-0.651-0.41-0.992
				l-8.41-0.647v-0.715v-0.714l8.41-0.647c0.099-0.341,0.236-0.675,0.41-0.992l-5.489-6.404l0.505-0.505l0.505-0.505
				L256.384,325.473z"/>
			<path style="fill-rule:evenodd;clip-rule:evenodd;fill:#A9C2C2;" d="M370.955,335.614c3.229,0,5.862-2.634,5.862-5.863
				c0-3.229-2.633-5.862-5.862-5.862c-3.229,0-5.862,2.633-5.862,5.862C365.093,332.98,367.726,335.614,370.955,335.614z"/>
			<path style="fill-rule:evenodd;clip-rule:evenodd;fill:#A9C2C2;" d="M375.101,325.607c2.289,2.289,2.289,6,0,8.29
				c-2.289,2.289-6.001,2.289-8.291,0c-2.289-2.29-2.289-6.001,0-8.29C369.099,323.318,372.811,323.318,375.101,325.607z"/>
			<path style="fill-rule:evenodd;clip-rule:evenodd;fill:#A9C2C2;" d="M376.818,329.751c0,3.238-2.625,5.863-5.863,5.863
				c-3.237,0-5.862-2.624-5.862-5.863c0-3.237,2.624-5.862,5.862-5.862C374.193,323.89,376.818,326.514,376.818,329.751z"/>
			<path style="fill-rule:evenodd;clip-rule:evenodd;fill:#A9C2C2;" d="M375.1,333.897c-2.289,2.289-6.001,2.289-8.29,0
				c-2.289-2.289-2.289-6.001,0-8.29c2.289-2.289,6.001-2.289,8.29,0C377.39,327.896,377.39,331.608,375.1,333.897z"/>
			<path style="fill-rule:evenodd;clip-rule:evenodd;fill:#A9C2C2;" d="M370.955,335.614c-3.238,0-5.862-2.624-5.862-5.862
				c0-3.238,2.625-5.863,5.862-5.863c3.238,0,5.862,2.625,5.862,5.863C376.817,332.989,374.193,335.614,370.955,335.614z"/>
			<path style="fill-rule:evenodd;clip-rule:evenodd;fill:#A9C2C2;" d="M366.81,333.897c-2.289-2.289-2.289-6.001,0-8.29
				c2.289-2.289,6.001-2.289,8.29,0s2.289,6.001,0,8.29C372.811,336.186,369.099,336.186,366.81,333.897z"/>
			<path style="fill-rule:evenodd;clip-rule:evenodd;fill:#A9C2C2;" d="M365.093,329.751c0-3.237,2.625-5.862,5.862-5.862
				c3.238,0,5.862,2.625,5.862,5.862c0,3.238-2.624,5.863-5.862,5.863C367.717,335.614,365.093,332.989,365.093,329.751z"/>
			<path style="fill-rule:evenodd;clip-rule:evenodd;fill:#000044;" d="M370.955,303.792c14.337,0,25.959,11.622,25.959,25.959
				c0,14.337-11.622,25.959-25.959,25.959c-14.337,0-25.959-11.622-25.959-25.959C344.996,315.415,356.618,303.792,370.955,303.792
				 M370.955,310.461c-10.654,0-19.291,8.637-19.291,19.291c0,10.654,8.637,19.291,19.291,19.291
				c10.654,0,19.291-8.637,19.291-19.291C390.246,319.097,381.609,310.461,370.955,310.461"/>
			<path style="fill-rule:evenodd;clip-rule:evenodd;fill:#A9C2C2;" d="M370.955,310.461c10.654,0,19.291,8.637,19.291,19.291
				c0,10.654-8.637,19.291-19.291,19.291c-10.654,0-19.291-8.637-19.291-19.291C351.664,319.097,360.301,310.461,370.955,310.461
				 M370.955,317.725c-6.642,0-12.027,5.384-12.027,12.026c0,6.643,5.385,12.027,12.027,12.027c6.642,0,12.026-5.385,12.026-12.027
				C382.981,323.109,377.598,317.725,370.955,317.725"/>
			<path style="fill:#7E9191;" d="M370.955,343.398c-7.536,0-13.647-6.111-13.647-13.647s6.111-13.647,13.647-13.647
				c7.536,0,13.647,6.111,13.647,13.647S378.491,343.398,370.955,343.398 M370.955,312.08c-9.759,0-17.671,7.911-17.671,17.671
				c0,9.76,7.911,17.671,17.671,17.671c9.76,0,17.671-7.911,17.671-17.671C388.626,319.992,380.715,312.08,370.955,312.08"/>
			<path style="fill-rule:evenodd;clip-rule:evenodd;fill:#A9C2C2;" d="M368.601,325.473c0.317-0.175,0.651-0.311,0.993-0.41
				l0.647-8.409h0.714h0.714l0.647,8.409c0.342,0.099,0.675,0.236,0.992,0.41l6.405-5.488l0.505,0.505l0.505,0.505l-5.489,6.404
				c0.175,0.317,0.311,0.651,0.41,0.992l8.41,0.647v0.714v0.715l-8.41,0.647c-0.099,0.341-0.236,0.674-0.41,0.992l5.489,6.404
				l-0.505,0.505l-0.506,0.505l-6.404-5.489c-0.317,0.175-0.65,0.311-0.992,0.41l-0.647,8.41h-0.714h-0.714l-0.647-8.409
				c-0.342-0.099-0.675-0.237-0.992-0.41l-6.404,5.488l-0.505-0.505l-0.505-0.505l5.489-6.404c-0.175-0.317-0.312-0.651-0.411-0.992
				l-8.41-0.647v-0.715v-0.714l8.41-0.647c0.099-0.341,0.236-0.675,0.411-0.992l-5.489-6.404l0.505-0.505l0.505-0.505
				L368.601,325.473z"/>
			<path style="fill-rule:evenodd;clip-rule:evenodd;" d="M348.79,296.959l4.705-2.717l19.619,34.433
				c0.74,1.298,0.062,2.655-0.994,3.711c-1.056,1.056-2.971,0.304-3.711-0.994L348.79,296.959z"/>
			<path style="fill-rule:evenodd;clip-rule:evenodd;fill:#9F0B0F;" d="M370.955,296.559c3.024,0,5.954,0.406,8.737,1.163
				c0.841,0.229,1.449,0.841,1.673,1.683c0.224,0.843,0,1.676-0.616,2.293l-37.847,37.847c-0.616,0.616-1.45,0.841-2.292,0.617
				c-0.842-0.224-1.454-0.833-1.684-1.674c-0.758-2.783-1.163-5.713-1.163-8.737C337.763,311.421,352.624,296.559,370.955,296.559z"
				/>
			<path style="fill-rule:evenodd;clip-rule:evenodd;fill:#B0040A;" d="M257.743,290.078l51.496-0.755
				c-9.722,19.094-10.151,32.898,0,44.414h-23.591l-1.669-1.65h-56.83c-1.44,0-2.679-0.562-3.628-1.646
				c-0.948-1.083-1.341-2.386-1.151-3.813c2.59-19.393,14.435-33.786,33.278-34.787
				C257.896,291.722,258.172,290.581,257.743,290.078z"/>
			<path style="fill-rule:evenodd;clip-rule:evenodd;fill:#CA0007;" d="M301.423,331.143h2.603
				c-7.915-12.33-5.05-26.001,1.038-39.165l-2.037,0.03c-1.788,0.026-3.299,1.07-3.957,2.732c-4.503,11.385-6.312,22.961-1.613,33.8
				C298.157,330.155,299.662,331.143,301.423,331.143z"/>
			<path style="fill-rule:evenodd;clip-rule:evenodd;fill:#CA0007;" d="M285.154,332.593h22.959c7.304,0,17.118,1.049,21.708-6.573
				l20.147-33.455c2.562-4.255,2.589-7.505,1.201-13.293l-4.604-19.195c-0.409-1.706-0.597-3.049,1.038-3.049h2.112
				c2.019,0,3.724,1.339,4.201,3.302l4.076,16.766c0.824,3.391,3.621,14.6,1.835,17.597l-24.653,41.362h-1.522h-9.487H284.68
				C284.896,334.92,285.055,333.765,285.154,332.593z"/>
			<path style="fill-rule:evenodd;clip-rule:evenodd;fill:#B0040A;" d="M334.634,335.768h-50.361c-0.335,0-0.609,0.273-0.609,0.609
				v2.25c0,0.336,0.274,0.609,0.609,0.609h50.361c0.335,0,0.609-0.273,0.609-0.609v-2.25
				C335.243,336.042,334.969,335.768,334.634,335.768z"/>
			<path style="fill-rule:evenodd;clip-rule:evenodd;fill:#CA0007;" d="M258.668,295.46c18.568,0,33.91,13.818,36.302,31.732
				c0.171,1.28-0.182,2.447-1.032,3.419c-0.851,0.972-1.962,1.476-3.254,1.476h-64.033c-1.291,0-2.403-0.504-3.254-1.476
				c-0.85-0.971-1.203-2.14-1.032-3.419C224.758,309.279,240.1,295.46,258.668,295.46z"/>
			<path style="fill-rule:evenodd;clip-rule:evenodd;fill:#B10B09;" d="M258.668,299.001c15.764,0,28.789,11.731,30.82,26.939
				c0.145,1.087-0.154,2.078-0.876,2.904c-0.094,0.106-0.192,0.207-0.292,0.3c-3.98-12.585-15.75-21.708-29.652-21.708
				c-13.901,0-25.671,9.124-29.651,21.708c-0.101-0.093-0.199-0.194-0.292-0.3c-0.722-0.825-1.021-1.818-0.876-2.904
				C229.879,310.731,242.904,299.001,258.668,299.001z"/>
			<path style="fill-rule:evenodd;clip-rule:evenodd;" d="M256.834,280.569h52.614c0.629,0,1.144,0.515,1.144,1.144v7.22
				c0,0.629-0.515,1.144-1.144,1.144h-52.614c-0.629,0-1.144-0.515-1.144-1.144v-7.22
				C255.69,281.084,256.204,280.569,256.834,280.569z"/>
			<path style="fill-rule:evenodd;clip-rule:evenodd;fill:#CA0007;" d="M218.802,222.972h60.621c1.18,0,2.145,0.965,2.145,2.145
				v53.186c0,1.18-0.965,2.145-2.145,2.145h-60.621c-1.18,0-2.144-0.965-2.144-2.145v-53.186
				C216.658,223.936,217.623,222.972,218.802,222.972z"/>
			<path style="fill-rule:evenodd;clip-rule:evenodd;fill:#B10B09;" d="M222.274,226.263h53.677c1.045,0,1.9,0.854,1.9,1.899v19.544
				c-19.159,7.768-44.036-10.342-57.476,15.155v-34.699C220.375,227.118,221.23,226.263,222.274,226.263z"/>
			<path style="fill-rule:evenodd;clip-rule:evenodd;fill:#FFFFFF;" d="M249.113,236.126c8.607,0,15.584,6.977,15.584,15.584
				c0,0.361-0.013,0.72-0.036,1.075l-7.718-3.138l3.209-3.057l-19.537-7.945C243.06,237.052,245.978,236.126,249.113,236.126z
				 M262.054,260.393c-2.798,4.161-7.549,6.9-12.941,6.9c-8.03,0-14.641-6.073-15.491-13.877l9.798,1.945l-3.918,3.732
				L262.054,260.393z"/>
			<polygon style="fill-rule:evenodd;clip-rule:evenodd;fill:#FFFFFF;" points="236.28,239.682 226.186,249.296 248.83,253.791 
				245.621,256.848 271.424,258.335 252.247,250.537 255.457,247.48 			"/>
			<path style="fill-rule:evenodd;clip-rule:evenodd;fill:#F1CF00;" d="M361.676,264.215c1.311-0.111,2.611,2.602,2.904,6.06
				c0.293,3.457-0.532,6.35-1.843,6.461c-1.31,0.111-2.611-2.602-2.904-6.059C359.54,267.219,360.365,264.326,361.676,264.215z"/>
			<path style="fill-rule:evenodd;clip-rule:evenodd;fill:#9F0B0F;" d="M361.148,263.388l0.032-0.004
				c0.472-0.052,0.9,0.289,0.954,0.762l1.419,12.415c0.054,0.472-0.286,0.901-0.758,0.957l-0.032,0.003
				c-4.413,0.505-8.352-2.25-8.798-6.154C353.52,267.466,356.735,263.893,361.148,263.388z"/>
			<path style="fill-rule:evenodd;clip-rule:evenodd;fill:#9DC6C6;" d="M359.755,263.658l1.814,13.922
				c0.393,0.007,0.792-0.012,1.195-0.058l0.032-0.003c0.472-0.056,0.812-0.485,0.758-0.957l-1.419-12.415
				c-0.054-0.472-0.482-0.813-0.954-0.762l-0.032,0.004C360.668,263.443,360.203,263.534,359.755,263.658z"/>
			<path style="fill-rule:evenodd;clip-rule:evenodd;" d="M348.832,258.536l-9.555-2.455c-0.495-0.127-1.004,0.174-1.132,0.669
				l-0.249,0.97c-0.128,0.494,0.173,1.004,0.669,1.131l9.555,2.454c0.495,0.128,1.004-0.174,1.131-0.668l0.249-0.97
				C349.628,259.173,349.327,258.664,348.832,258.536z"/>
			<line style="fill:#EDB38C;" x1="350.331" y1="256.921" x2="350.275" y2="256.982"/>
			<g>
				<path style="fill:#191213;" d="M309.599,325.655c-0.409,0.887-0.851,1.772-1.054,2.727c-0.202,0.956-0.137,2.013,0.411,2.822
					c1.041,1.536,3.247,1.579,5.098,1.46c0.911-0.059,1.821-0.117,2.732-0.176c1.166-0.075,2.523-0.263,3.104-1.278
					c0.517-0.903,0.163-2.029-0.136-3.026c-0.675-2.254-1.006-4.611-0.976-6.963c0.009-0.699,0.045-1.422-0.216-2.07
					c-0.364-0.905-1.264-1.508-2.206-1.765c-2.126-0.577-3.742-0.528-4.32,1.516C311.381,321.215,310.607,323.467,309.599,325.655z"
					/>
				<path style="fill:#2E4C5E;" d="M316.847,294.011c0.475,0.518,0.962,1.069,1.133,1.75c0.158,0.63,0.024,1.296-0.161,1.919
					c-0.814,2.747-2.607,5.234-2.767,8.095c-0.048,0.86,0.055,1.733-0.107,2.579c-0.182,0.95-0.685,1.803-1.179,2.635
					c-0.649,1.092-1.299,2.184-1.948,3.276c-0.403,0.678-0.821,1.411-0.771,2.199c0.093,1.484,1.707,2.331,3.118,2.802
					c0.817,0.273,1.839,0.473,2.44-0.144c0.246-0.253,0.366-0.6,0.479-0.935c2.448-7.264,4.896-14.527,7.343-21.791
					c0.612-1.817,1.224-3.812,0.548-5.606c-0.744-1.974-2.801-3.076-4.695-4.004c-1.76-0.863-3.52-1.726-5.279-2.589
					c-1.54-0.755-3.634-1.417-4.764-0.126c-1.577,1.803-0.052,3.276,1.23,4.238C313.456,289.802,315.166,292.176,316.847,294.011z"
					/>
				<path style="fill:#281B1C;" d="M313.23,326.312c-0.614,1.54-1.24,3.158-1.062,4.806c0.038,0.359,0.127,0.737,0.386,0.988
					c0.22,0.215,0.53,0.305,0.827,0.384c5.141,1.367,10.585,1.578,15.817,0.614c0.758-0.139,1.539-0.316,2.145-0.79
					c0.607-0.475,0.983-1.331,0.676-2.038c-0.379-0.869-1.495-1.074-2.438-1.181c-1.687-0.191-3.409-0.461-4.888-1.294
					c-1.479-0.833-2.683-2.346-2.697-4.044c-0.01-1.289,0.556-2.846-0.415-3.693c-0.463-0.403-1.123-0.462-1.736-0.503
					c-2.034-0.132-3.096-0.572-4.33,0.919C314.427,321.795,313.848,324.705,313.23,326.312z"/>
				<path style="fill:#A11211;" d="M287.327,241.369c-4.371,8.218-6.581,17.382-8.75,26.434c-0.191,0.799-0.383,1.641-0.163,2.433
					c0.219,0.793,1.002,1.493,1.805,1.319c0.012,0.779,0.024,1.559,0.036,2.338c1.093,1.577,3.042,2.388,4.955,2.551
					c1.912,0.163,3.823-0.237,5.7-0.634c4.062-0.859,8.124-1.719,12.186-2.578c0.818-0.173,1.704-0.386,2.224-1.041
					c0.52-0.655,0.329-1.88-0.495-2.021c2.882-0.518,4.093-3.909,4.764-6.76c0.674-2.861,1.347-5.722,2.021-8.583
					c1.07-4.544,2.145-9.133,2.208-13.801c0.046-3.452-0.291-7.398,2.156-9.833c0.765-0.761,1.788-1.349,2.168-2.359
					c0.581-1.548-0.626-3.145-1.747-4.36c-1.461-1.582-2.921-3.164-4.382-4.746c-0.236-0.255-0.507-0.529-0.854-0.551
					c-0.405-0.026-0.739,0.297-1.015,0.595c-2.13,2.305-3.495,3.219-6.256,4.57c-2.451,1.199-4.721,2.747-6.787,4.526
					C293.337,232.108,289.198,236.692,287.327,241.369z"/>
				<path style="fill:#A11211;" d="M295.126,247.516c-0.588,5.153,0.668,10.791,4.488,14.297c2.569,2.357,6.044,3.535,9.51,3.914
					c3.465,0.38,6.965,0.026,10.433-0.328c0.216-0.397,0.432-0.792,0.648-1.188c0.828,0.289,1.657,0.579,2.486,0.868
					c0.3-0.359,0.6-0.72,0.901-1.08c0.294,0.881,1.338,1.432,2.231,1.178c0.277-2.391,0.981-4.731,2.069-6.878
					c-6.3-1.244-12.686-2.516-18.44-5.366c-0.913-0.452-1.928-0.957-2.906-0.668c0.761-4.193,0.968-8.486,0.614-12.732
					c-0.168-2.02-0.512-4.145-1.811-5.7C299.244,226.523,295.51,244.152,295.126,247.516z"/>
				<path style="fill:#CA0007;" d="M307.49,236.899c-0.164-0.983-0.349-1.977-0.783-2.874c-0.451-0.933-1.435-1.82-2.419-1.493
					c-1.195,0.396-1.225,2.057-1.022,3.299c0.594,3.631,1.188,7.262,1.783,10.893c0.422,2.579,0.835,5.282-0.004,7.756
					c0.555-0.055,1.111-0.11,1.666-0.166c0.037,0.613,0.075,1.225,0.112,1.838c4.291,1.248,8.706,2.067,13.158,2.441
					c-0.094-1.644-2.12-2.294-3.725-2.665c-1.918-0.443-3.903-1.036-5.665-1.927c-2.191-1.107-1.909-1.508-1.938-4.012
					C308.6,245.604,308.211,241.224,307.49,236.899z"/>
				<path style="fill:#CA0007;" d="M314.035,230.852c0.951-0.689,1.821-1.49,2.586-2.381c-0.772-0.964-1.544-1.929-2.315-2.893
					c-0.118-0.147-0.242-0.298-0.411-0.379c-0.318-0.151-0.706-0.008-0.972,0.222c-0.707,0.608-0.79,1.716-0.447,2.583
					c0.343,0.867,1.022,1.55,1.683,2.208"/>
				<path style="fill:#CA0007;" d="M305.061,269.62c-0.788,0.701-1.961,0.692-3.015,0.641c-0.515-0.025-1.055-0.057-1.491-0.331
					c-0.437-0.274-0.713-0.875-0.456-1.321c0.245-0.424,0.812-0.507,1.301-0.532c0.702-0.036,1.419-0.05,2.081-0.289
					c0.661-0.238,1.27-0.751,1.413-1.44c0.549-0.306,1.301,0.095,1.501,0.691c0.2,0.596-0.049,1.27-0.469,1.737
					c-0.419,0.469-0.987,0.773-1.542,1.068"/>
				<path style="fill:#3D5E77;" d="M285.446,281.784c2.717,1.562,5.929,1.955,9.042,2.315c3.471,0.402,6.941,0.805,10.413,1.207
					c4.802,0.556,10.142,1.406,13.076,5.247c0.303,0.397,0.616,0.85,1.101,0.969c0.53,0.131,1.054-0.185,1.579-0.338
					c0.525-0.152,1.268,0.007,1.322,0.551c-0.567,0.513-0.882,1.294-0.832,2.057c0.395-0.068,0.79-0.135,1.185-0.202
					c0.232,0.952-0.388,1.876-0.915,2.701c-1.646,2.578-2.662,5.554-2.934,8.6c-0.194,2.164-0.054,4.484-1.183,6.341
					c-0.511,0.841-1.253,1.523-1.778,2.357c-0.48,0.762-0.769,1.642-0.835,2.539c-0.22,2.988,2.535,5.915,5.521,5.666
					c3.06-0.255,5.119-3.169,6.597-5.86c4.52-8.232,7.824-17.215,8.897-26.545c0.178-1.548,0.29-3.15-0.181-4.635
					c-1.064-3.356-4.666-5.107-7.939-6.404c-5.549-2.198-11.186-4.173-16.894-5.917c-1.554-0.475-3.129-0.936-4.751-1.043
					c-1.444-0.094-2.89,0.094-4.325,0.281c-5.514,0.724-11.029,1.447-16.543,2.169c-2.559,0.336-4.624-0.077-3.713,3.06
					C281.956,278.966,283.615,280.73,285.446,281.784z"/>
				<path style="fill:#4A6D82;" d="M322.617,281.261c1.645,0.634,3.335,1.296,4.617,2.504c3.079,2.901,2.815,7.892,1.496,11.911
					c-1.319,4.019-3.474,7.906-3.443,12.135c0.626,0.556,1.519-0.281,1.909-1.022c2.859-5.434,4.714-11.394,5.444-17.49
					c0.193-1.607,0.278-3.35-0.579-4.722c-0.74-1.183-2.046-1.868-3.3-2.48c-6.393-3.118-14.493-7.502-21.622-8.27
					C306.957,277.003,319.952,280.233,322.617,281.261z"/>
				<path style="fill:#EDB38C;" d="M331.419,264.295c0.635,0.018,1.279,0.036,1.897-0.109c2.358-0.555,3.689-3.262,6.014-3.941
					c0.143-0.043,0.294-0.076,0.44-0.047c0.209,0.041,0.373,0.2,0.515,0.359c0.377,0.42,0.706,0.892,1.16,1.225
					c0.454,0.335,1.085,0.509,1.586,0.249c0.5-0.261,0.678-1.064,0.224-1.398c0.214,0.499,0.878,0.747,1.366,0.508
					c0.488-0.238,0.703-0.914,0.441-1.39c0.232,0.385,0.722,0.593,1.16,0.493c0.438-0.1,0.789-0.5,0.832-0.947
					c0.062-0.657-0.462-1.203-0.902-1.696c-0.644-0.72-1.182-1.531-1.854-2.225c-0.671-0.695-1.517-1.283-2.477-1.389
					c-0.761-0.084-1.521,0.14-2.246,0.39c-1.629,0.562-3.208,1.267-4.713,2.106c-1.196,0.666-2.349,1.418-3.611,1.948
					c-1.261,0.53-2.668,0.828-4.005,0.535c-0.826-0.181-2.021,4.278-1.647,4.908c0.322,0.543,1.837,0.306,2.456,0.323
					C329.177,264.229,330.298,264.262,331.419,264.295z"/>
				<path style="fill:#EDB38C;" d="M336.268,212.497c0.605,0.975,1.975,1.32,2.454,2.364c-1.664,0.639-3.019,2.036-3.606,3.719
					c-0.701,2.004-0.417,4.449-1.859,6.006c-1.294,1.397-3.495,1.479-5.343,1.026c-1.85-0.453-3.598-1.336-5.492-1.535
					c-2.357-0.247-4.808,0.657-6.44,2.375c-0.38,0.401-0.831,0.888-1.376,0.79c-0.376-0.067-0.64-0.396-0.868-0.703
					c-0.91-1.224-1.821-2.448-2.732-3.672c1.299-1.422,2.028-3.35,1.997-5.275c-0.025-1.497-0.489-2.954-0.592-4.447
					c-0.376-5.446,4.336-10.286,9.64-11.574c4.141-1.005,11.095-0.593,14.68,2.04C340.322,206.251,334.389,209.468,336.268,212.497z
					"/>
				<path style="fill:#9E5E32;" d="M332.779,206.666c0.254,0.653-0.663,1.139-1.363,1.137c-1.361-0.002-2.668-0.535-4.025-0.651
					c-1.356-0.115-2.955,0.378-3.404,1.663c-0.301,0.86,0.004,1.798,0.116,2.702c0.113,0.905-0.103,2.019-0.954,2.347
					c-0.747-0.956-0.486-2.505-1.396-3.308c-0.773-0.682-1.979-0.453-2.921-0.035c-0.785,0.349-1.563,0.84-1.948,1.608
					c-0.905,1.803,0.748,4.042,0.079,5.945c-0.223,0.636-0.684,1.156-1.145,1.646c-0.566,0.602-1.172,1.203-1.936,1.52
					c-0.763,0.318-1.727,0.289-2.328-0.279c-1.016-0.958-0.457-2.643-0.716-4.015c-0.274-1.452-1.51-2.583-1.776-4.036
					c-0.147-0.802,0.017-1.626,0.196-2.421c0.458-2.041,1.029-4.092,2.118-5.879c1.788-2.931,4.88-4.924,8.189-5.835
					c3.31-0.911,6.829-0.816,10.213-0.243c1.475,0.25,2.963,0.6,4.248,1.367c1.508,0.9,2.89,2.408,4.639,2.251
					c-0.47,0.426-1.034,0.747-1.639,0.934c0.811,0.378,1.547,0.917,2.152,1.578c-0.233,0.391-0.677,0.604-1.119,0.633
					c0.467,0.794,0.159,2.083-0.889,2.197c-0.743,0.08-1.574-0.73-2.331-0.842c0.187,0.099,0.391,0.348,0.582,0.472
					C334.939,207.28,333.04,207.339,332.779,206.666z"/>
				<path style="fill:#C19272;" d="M320.783,215.056c0.008,0.091-0.125,0.137-0.202,0.089c-0.078-0.049-0.107-0.145-0.13-0.234
					c-0.089-0.336-0.172-0.699-0.051-1.025c0.12-0.327,0.531-0.567,0.826-0.383c0.241-0.567,0.063-1.281-0.414-1.669
					c-0.477-0.388-1.214-0.415-1.718-0.064c-0.406,0.282-0.637,0.751-0.809,1.213c-0.141,0.378-0.256,0.787-0.171,1.182
					c0.07,0.329,0.272,0.612,0.469,0.885c0.229,0.316,0.457,0.633,0.685,0.949c0.221,0.306,0.497,0.643,0.875,0.653
					c0.378,0.01,0.69-0.342,0.762-0.714c0.071-0.371-0.041-0.752-0.17-1.108"/>
				<path style="fill:#CEEAE8;" d="M335.108,213.724c0.614-0.284,1.267-0.604,1.934-0.493c1.005,0.167,1.613,1.297,1.562,2.314
					c-0.052,1.018-0.587,1.939-1.108,2.815c-0.888,1.494-1.777,2.988-2.686,4.47c-0.612,0.997-1.267,2.025-2.266,2.634
					c-1.244,0.759-2.841,0.735-4.224,0.279c-1.384-0.456-2.601-1.298-3.797-2.128c0.052-0.78,0.829-1.267,1.364-1.838
					c1.036-1.104,1.249-2.758,1.096-4.265c-0.24-2.36,1.128-1.788,3.023-2.15C331.765,215.026,333.483,214.475,335.108,213.724z"/>
				<path style="fill:#CEEAE8;" d="M322.498,212.82c1.766,1.302,3.607,2.481,5.528,3.541c0.304,0.168,0.578-0.298,0.273-0.467
					c-1.92-1.06-3.762-2.239-5.527-3.541C322.491,212.147,322.221,212.616,322.498,212.82z"/>
				<path style="fill:#CEEAE8;" d="M316.778,217.689c2.925,1.974,5.798,4.021,8.62,6.142c0.278,0.209,0.548-0.26,0.273-0.467
					c-2.821-2.121-5.694-4.168-8.62-6.142C316.762,217.027,316.491,217.495,316.778,217.689z"/>
				<path style="fill:#B7CECC;" d="M328.491,219.02c0.04-0.537,0.023-1.118,0.334-1.558c0.355-0.502,1.017-0.655,1.612-0.815
					c1.066-0.287,2.094-0.716,3.048-1.271c0.169-0.099,0.346-0.204,0.543-0.213c0.448-0.018,0.76,0.494,0.731,0.943
					c-0.028,0.448-0.279,0.845-0.468,1.253l-0.047,0.238c0.025,0.091,0.115,0.147,0.186,0.209c0.351,0.304,0.336,0.894,0.052,1.261
					c-0.284,0.366-0.761,0.536-1.223,0.571c-0.304,0.023-0.674,0.031-0.821,0.298c-0.07,0.126-0.066,0.278-0.069,0.423
					c-0.036,1.394-1.114,2.694-2.478,2.989c0.097,0.285,0.139,0.59,0.126,0.891c-0.005,0.114-0.024,0.238-0.109,0.313
					c-0.14,0.122-0.357,0.038-0.52-0.051c-1.01-0.547-2.461-0.843-2.114-2.137C327.591,221.185,328.491,220.359,328.491,219.02z"/>
				<path style="fill:#A11211;" d="M318.905,216.831c0.459-0.035,0.934-0.079,1.333-0.332c0.378-0.238,0.646-0.64,0.867-1.053
					c1.077-2.01,1.332-4.582,2.865-6.193c1.873-1.967,4.809-1.71,7.398-1.713c2.066-0.002,4.132-0.253,6.148-0.748
					c0.372-0.091,0.753-0.196,1.061-0.441c0.549-0.438,0.76-1.236,0.784-1.981c0.09-2.792-1.877-5.152-3.975-6.725
					c-3.672-2.752-8.173-4.14-12.61-3.886c-4.437,0.254-8.784,2.147-12.175,5.303c-1.802,1.675-3.384,3.801-3.882,6.337
					c-0.309,1.57-0.184,3.202,0.02,4.792c0.181,1.403,0.431,2.823,1.045,4.068C309.892,218.541,315.275,217.109,318.905,216.831z"/>
				<path style="fill:#CA0007;" d="M315.797,195.856c-2.773,0.963-5.418,2.541-7.142,4.918c-1.723,2.376-2.388,5.634-1.224,8.329
					c0.346,0.802,0.893,1.579,1.707,1.895c1.09,0.423,2.351-0.115,3.178-0.942c1.651-1.651,2.528-3.929,4.206-5.613
					c1.37-1.375,3.09-2.01,4.53-3.218c1.243-1.042,1.719-2.81,0.856-4.305C320.654,194.749,317.768,195.171,315.797,195.856z"/>
				<path style="fill:#681616;" d="M320.148,223.841l0.028,0.255l-0.171,0.146c-0.318,0.161-0.652,0.291-0.997,0.385
					c-0.813-2.394-1.358-4.88-1.622-7.395c-0.028-0.266-0.051-0.544,0.048-0.792c0.171-0.427,1.207-1.027,1.601-0.642
					c0.24,0.234-0.037,2.297-0.014,2.698C319.126,220.321,319.505,222.13,320.148,223.841z"/>
				<path style="fill:#4C3729;" d="M330.955,210.228c1.082-0.533,1.977-0.68,3.174-0.658c0.528,0.01,1.094-0.151,1.105-0.773
					l-0.044-0.059c-0.356-0.055-0.702,0.062-1.06,0.061c-0.458-0.001-0.874-0.034-1.33,0.054c-0.744,0.143-1.649,0.477-2.073,1.145
					C330.629,210.15,330.814,210.297,330.955,210.228z"/>
				<path style="fill:#4C3729;" d="M331.229,211.838c0.697-0.415,1.436-0.413,2.215-0.532c0.394-0.061,0.857-0.121,1.06-0.494
					c0.045-0.081-0.028-0.181-0.12-0.156c-0.26,0.069-0.473,0.224-0.732,0.305c-0.281,0.087-0.577,0.122-0.862,0.192
					c-0.549,0.134-1.102,0.353-1.571,0.669L331.229,211.838z"/>
				<path style="fill:#4C3729;" d="M333.054,211.218c-0.058,0.238-0.212,0.84,0.174,0.907c0.424,0.073,0.432-0.57,0.379-0.828
					l-0.151-0.151l-0.043-0.009l-0.172,0.07l-0.051,0.205l0.042,0.145l-0.002,0.195l0.048-0.098l-0.014-0.121
					c-0.017-0.105-0.043-0.21-0.061-0.315H333.054z"/>
				<path style="fill:#4C3729;" d="M332.174,212.128c0.289,0.156,0.603,0.234,0.933,0.211c0.246-0.018,0.612-0.073,0.731-0.316
					l-0.049-0.084c-0.214-0.004-0.402,0.138-0.614,0.179c-0.318,0.061-0.633,0.014-0.925-0.122
					C332.163,211.956,332.086,212.081,332.174,212.128z"/>
				<path style="fill:#4C3729;" d="M332.839,212.716c0.147,0.004,0.294,0.003,0.417-0.082l-0.036-0.133
					c-0.128-0.005-0.251,0.032-0.381,0.032C332.721,212.534,332.722,212.713,332.839,212.716z"/>
			</g>
		</g>
	</g>
</g>
</svg>
